<mxfile host="app.diagrams.net" agent="Mozilla/5.0 (Windows NT 10.0; Win64; x64) AppleWebKit/537.36 (KHTML, like Gecko) Chrome/131.0.0.0 Safari/537.36" version="26.0.2">
  <diagram name="Trang-1" id="tl0PI4m8TOmARIXZzerM">
    <mxGraphModel dx="53" dy="434" grid="1" gridSize="10" guides="1" tooltips="1" connect="1" arrows="1" fold="1" page="1" pageScale="1" pageWidth="827" pageHeight="1169" math="0" shadow="0">
      <root>
        <mxCell id="0" />
        <mxCell id="1" parent="0" />
        <mxCell id="JhfPwucGBp-IxvxOEwGX-1" style="edgeStyle=orthogonalEdgeStyle;rounded=0;orthogonalLoop=1;jettySize=auto;html=1;entryX=0.5;entryY=1;entryDx=0;entryDy=0;endArrow=none;endFill=0;" edge="1" parent="1" source="JhfPwucGBp-IxvxOEwGX-3" target="JhfPwucGBp-IxvxOEwGX-222">
          <mxGeometry relative="1" as="geometry" />
        </mxCell>
        <mxCell id="JhfPwucGBp-IxvxOEwGX-2" style="edgeStyle=orthogonalEdgeStyle;rounded=0;orthogonalLoop=1;jettySize=auto;html=1;entryX=0.5;entryY=0;entryDx=0;entryDy=0;endArrow=none;endFill=0;" edge="1" parent="1" source="JhfPwucGBp-IxvxOEwGX-3" target="JhfPwucGBp-IxvxOEwGX-55">
          <mxGeometry relative="1" as="geometry" />
        </mxCell>
        <mxCell id="JhfPwucGBp-IxvxOEwGX-3" value="HANGHOA" style="rounded=0;whiteSpace=wrap;html=1;fontStyle=1" vertex="1" parent="1">
          <mxGeometry x="3280" y="1860" width="120" height="60" as="geometry" />
        </mxCell>
        <mxCell id="JhfPwucGBp-IxvxOEwGX-4" value="&lt;b&gt;&lt;u&gt;MaHH&lt;/u&gt;&lt;/b&gt;" style="ellipse;whiteSpace=wrap;html=1;" vertex="1" parent="1">
          <mxGeometry x="3430" y="1790" width="110" height="40" as="geometry" />
        </mxCell>
        <mxCell id="JhfPwucGBp-IxvxOEwGX-5" value="&lt;b&gt;TenHH&lt;/b&gt;" style="ellipse;whiteSpace=wrap;html=1;" vertex="1" parent="1">
          <mxGeometry x="3450" y="1850" width="110" height="40" as="geometry" />
        </mxCell>
        <mxCell id="JhfPwucGBp-IxvxOEwGX-6" value="" style="endArrow=none;html=1;rounded=0;exitX=0;exitY=0.5;exitDx=0;exitDy=0;entryX=0.75;entryY=0;entryDx=0;entryDy=0;" edge="1" parent="1" source="JhfPwucGBp-IxvxOEwGX-4" target="JhfPwucGBp-IxvxOEwGX-3">
          <mxGeometry width="50" height="50" relative="1" as="geometry">
            <mxPoint x="3390" y="1850" as="sourcePoint" />
            <mxPoint x="3440" y="1800" as="targetPoint" />
          </mxGeometry>
        </mxCell>
        <mxCell id="JhfPwucGBp-IxvxOEwGX-7" value="" style="endArrow=none;html=1;rounded=0;exitX=0.75;exitY=0;exitDx=0;exitDy=0;entryX=0;entryY=0.5;entryDx=0;entryDy=0;" edge="1" parent="1" target="JhfPwucGBp-IxvxOEwGX-5">
          <mxGeometry width="50" height="50" relative="1" as="geometry">
            <mxPoint x="3400" y="1890" as="sourcePoint" />
            <mxPoint x="3470" y="1830" as="targetPoint" />
          </mxGeometry>
        </mxCell>
        <mxCell id="JhfPwucGBp-IxvxOEwGX-8" value="&lt;b&gt;TenAlias&lt;/b&gt;" style="ellipse;whiteSpace=wrap;html=1;" vertex="1" parent="1">
          <mxGeometry x="3460" y="1910" width="110" height="40" as="geometry" />
        </mxCell>
        <mxCell id="JhfPwucGBp-IxvxOEwGX-9" value="" style="endArrow=none;html=1;rounded=0;exitX=0.75;exitY=1;exitDx=0;exitDy=0;entryX=0;entryY=0.5;entryDx=0;entryDy=0;" edge="1" parent="1" source="JhfPwucGBp-IxvxOEwGX-3" target="JhfPwucGBp-IxvxOEwGX-8">
          <mxGeometry width="50" height="50" relative="1" as="geometry">
            <mxPoint x="3390" y="1980" as="sourcePoint" />
            <mxPoint x="3460" y="1920" as="targetPoint" />
          </mxGeometry>
        </mxCell>
        <mxCell id="JhfPwucGBp-IxvxOEwGX-10" value="&lt;b&gt;&lt;u&gt;MaLoai&lt;/u&gt;&lt;/b&gt;" style="ellipse;whiteSpace=wrap;html=1;" vertex="1" parent="1">
          <mxGeometry x="3110" y="1860" width="110" height="40" as="geometry" />
        </mxCell>
        <mxCell id="JhfPwucGBp-IxvxOEwGX-11" value="" style="endArrow=none;html=1;rounded=0;exitX=0;exitY=0.25;exitDx=0;exitDy=0;entryX=1;entryY=0.5;entryDx=0;entryDy=0;" edge="1" parent="1" source="JhfPwucGBp-IxvxOEwGX-3" target="JhfPwucGBp-IxvxOEwGX-10">
          <mxGeometry width="50" height="50" relative="1" as="geometry">
            <mxPoint x="3120" y="1890" as="sourcePoint" />
            <mxPoint x="3150" y="1725" as="targetPoint" />
          </mxGeometry>
        </mxCell>
        <mxCell id="JhfPwucGBp-IxvxOEwGX-12" value="&lt;b&gt;MoTaDonVi&lt;/b&gt;" style="ellipse;whiteSpace=wrap;html=1;" vertex="1" parent="1">
          <mxGeometry x="3114" y="1790" width="110" height="40" as="geometry" />
        </mxCell>
        <mxCell id="JhfPwucGBp-IxvxOEwGX-13" value="" style="endArrow=none;html=1;rounded=0;exitX=0.25;exitY=0;exitDx=0;exitDy=0;entryX=1;entryY=0.5;entryDx=0;entryDy=0;" edge="1" parent="1" source="JhfPwucGBp-IxvxOEwGX-3" target="JhfPwucGBp-IxvxOEwGX-12">
          <mxGeometry width="50" height="50" relative="1" as="geometry">
            <mxPoint x="3310" y="1775" as="sourcePoint" />
            <mxPoint x="3180" y="1625" as="targetPoint" />
          </mxGeometry>
        </mxCell>
        <mxCell id="JhfPwucGBp-IxvxOEwGX-14" value="&lt;b&gt;DonGia&lt;/b&gt;" style="ellipse;whiteSpace=wrap;html=1;" vertex="1" parent="1">
          <mxGeometry x="3110" y="1940" width="110" height="40" as="geometry" />
        </mxCell>
        <mxCell id="JhfPwucGBp-IxvxOEwGX-15" value="" style="endArrow=none;html=1;rounded=0;exitX=0;exitY=0.5;exitDx=0;exitDy=0;entryX=1;entryY=0.5;entryDx=0;entryDy=0;" edge="1" parent="1" source="JhfPwucGBp-IxvxOEwGX-3" target="JhfPwucGBp-IxvxOEwGX-14">
          <mxGeometry width="50" height="50" relative="1" as="geometry">
            <mxPoint x="3280" y="1955" as="sourcePoint" />
            <mxPoint x="3150" y="1805" as="targetPoint" />
          </mxGeometry>
        </mxCell>
        <mxCell id="JhfPwucGBp-IxvxOEwGX-16" value="&lt;b&gt;Hinh&lt;/b&gt;" style="ellipse;whiteSpace=wrap;html=1;" vertex="1" parent="1">
          <mxGeometry x="3100" y="2015" width="110" height="40" as="geometry" />
        </mxCell>
        <mxCell id="JhfPwucGBp-IxvxOEwGX-17" value="" style="endArrow=none;html=1;rounded=0;exitX=0;exitY=0.75;exitDx=0;exitDy=0;entryX=1;entryY=0.5;entryDx=0;entryDy=0;" edge="1" parent="1" source="JhfPwucGBp-IxvxOEwGX-3" target="JhfPwucGBp-IxvxOEwGX-16">
          <mxGeometry width="50" height="50" relative="1" as="geometry">
            <mxPoint x="3270" y="1980" as="sourcePoint" />
            <mxPoint x="3140" y="1880" as="targetPoint" />
          </mxGeometry>
        </mxCell>
        <mxCell id="JhfPwucGBp-IxvxOEwGX-18" value="&lt;b&gt;NgaySX&lt;/b&gt;" style="ellipse;whiteSpace=wrap;html=1;" vertex="1" parent="1">
          <mxGeometry x="3170" y="2080" width="110" height="40" as="geometry" />
        </mxCell>
        <mxCell id="JhfPwucGBp-IxvxOEwGX-19" value="" style="endArrow=none;html=1;rounded=0;exitX=0.25;exitY=1;exitDx=0;exitDy=0;entryX=0.5;entryY=0;entryDx=0;entryDy=0;" edge="1" parent="1" source="JhfPwucGBp-IxvxOEwGX-3" target="JhfPwucGBp-IxvxOEwGX-18">
          <mxGeometry width="50" height="50" relative="1" as="geometry">
            <mxPoint x="3425" y="1980" as="sourcePoint" />
            <mxPoint x="3295" y="1880" as="targetPoint" />
          </mxGeometry>
        </mxCell>
        <mxCell id="JhfPwucGBp-IxvxOEwGX-20" value="&lt;b&gt;GiamGia&lt;/b&gt;" style="ellipse;whiteSpace=wrap;html=1;" vertex="1" parent="1">
          <mxGeometry x="3300" y="2095" width="110" height="40" as="geometry" />
        </mxCell>
        <mxCell id="JhfPwucGBp-IxvxOEwGX-21" value="" style="endArrow=none;html=1;rounded=0;exitX=0.5;exitY=1;exitDx=0;exitDy=0;entryX=0.5;entryY=0;entryDx=0;entryDy=0;" edge="1" parent="1" source="JhfPwucGBp-IxvxOEwGX-3" target="JhfPwucGBp-IxvxOEwGX-20">
          <mxGeometry width="50" height="50" relative="1" as="geometry">
            <mxPoint x="3440" y="1935" as="sourcePoint" />
            <mxPoint x="3425" y="1895" as="targetPoint" />
          </mxGeometry>
        </mxCell>
        <mxCell id="JhfPwucGBp-IxvxOEwGX-22" value="&lt;b&gt;SoLanXem&lt;/b&gt;" style="ellipse;whiteSpace=wrap;html=1;" vertex="1" parent="1">
          <mxGeometry x="3400" y="2150" width="110" height="40" as="geometry" />
        </mxCell>
        <mxCell id="JhfPwucGBp-IxvxOEwGX-23" value="&lt;b&gt;MoTa&lt;/b&gt;" style="ellipse;whiteSpace=wrap;html=1;" vertex="1" parent="1">
          <mxGeometry x="3480" y="2095" width="110" height="40" as="geometry" />
        </mxCell>
        <mxCell id="JhfPwucGBp-IxvxOEwGX-24" value="" style="endArrow=none;html=1;rounded=0;exitX=0.75;exitY=1;exitDx=0;exitDy=0;entryX=0.5;entryY=0;entryDx=0;entryDy=0;" edge="1" parent="1" source="JhfPwucGBp-IxvxOEwGX-3" target="JhfPwucGBp-IxvxOEwGX-23">
          <mxGeometry width="50" height="50" relative="1" as="geometry">
            <mxPoint x="3520" y="1920" as="sourcePoint" />
            <mxPoint x="3605" y="1895" as="targetPoint" />
          </mxGeometry>
        </mxCell>
        <mxCell id="JhfPwucGBp-IxvxOEwGX-25" value="&lt;b&gt;&lt;u&gt;MaNCC&lt;/u&gt;&lt;/b&gt;" style="ellipse;whiteSpace=wrap;html=1;" vertex="1" parent="1">
          <mxGeometry x="3520" y="2025" width="110" height="40" as="geometry" />
        </mxCell>
        <mxCell id="JhfPwucGBp-IxvxOEwGX-26" value="" style="endArrow=none;html=1;rounded=0;exitX=0.75;exitY=1;exitDx=0;exitDy=0;entryX=0.5;entryY=0;entryDx=0;entryDy=0;" edge="1" parent="1" source="JhfPwucGBp-IxvxOEwGX-3" target="JhfPwucGBp-IxvxOEwGX-25">
          <mxGeometry width="50" height="50" relative="1" as="geometry">
            <mxPoint x="3560" y="1850" as="sourcePoint" />
            <mxPoint x="3645" y="1825" as="targetPoint" />
          </mxGeometry>
        </mxCell>
        <mxCell id="JhfPwucGBp-IxvxOEwGX-27" value="&lt;b&gt;Danhgia&lt;/b&gt;" style="ellipse;whiteSpace=wrap;html=1;" vertex="1" parent="1">
          <mxGeometry x="3224" y="2150" width="110" height="40" as="geometry" />
        </mxCell>
        <mxCell id="JhfPwucGBp-IxvxOEwGX-28" value="" style="endArrow=none;html=1;rounded=0;exitX=0.25;exitY=1;exitDx=0;exitDy=0;entryX=0.5;entryY=0;entryDx=0;entryDy=0;" edge="1" parent="1" source="JhfPwucGBp-IxvxOEwGX-3" target="JhfPwucGBp-IxvxOEwGX-27">
          <mxGeometry width="50" height="50" relative="1" as="geometry">
            <mxPoint x="3280" y="1970" as="sourcePoint" />
            <mxPoint x="3365" y="1945" as="targetPoint" />
          </mxGeometry>
        </mxCell>
        <mxCell id="JhfPwucGBp-IxvxOEwGX-29" style="edgeStyle=orthogonalEdgeStyle;rounded=0;orthogonalLoop=1;jettySize=auto;html=1;endArrow=none;endFill=0;exitX=0.5;exitY=0;exitDx=0;exitDy=0;" edge="1" parent="1" source="JhfPwucGBp-IxvxOEwGX-222" target="JhfPwucGBp-IxvxOEwGX-92">
          <mxGeometry relative="1" as="geometry">
            <mxPoint x="1080.0000000000005" y="1850" as="sourcePoint" />
          </mxGeometry>
        </mxCell>
        <mxCell id="JhfPwucGBp-IxvxOEwGX-30" value="RANDOMKEY" style="ellipse;whiteSpace=wrap;html=1;fontStyle=1" vertex="1" parent="1">
          <mxGeometry x="2600" y="1814" width="110" height="40" as="geometry" />
        </mxCell>
        <mxCell id="JhfPwucGBp-IxvxOEwGX-31" value="" style="endArrow=none;html=1;rounded=0;exitX=1;exitY=0;exitDx=0;exitDy=0;entryX=0;entryY=0.5;entryDx=0;entryDy=0;fontStyle=1" edge="1" parent="1" source="JhfPwucGBp-IxvxOEwGX-222" target="JhfPwucGBp-IxvxOEwGX-30">
          <mxGeometry width="50" height="50" relative="1" as="geometry">
            <mxPoint x="2550.0000000000005" y="1859" as="sourcePoint" />
            <mxPoint x="2620" y="1794" as="targetPoint" />
          </mxGeometry>
        </mxCell>
        <mxCell id="JhfPwucGBp-IxvxOEwGX-32" value="VAITRO" style="ellipse;whiteSpace=wrap;html=1;fontStyle=1" vertex="1" parent="1">
          <mxGeometry x="2664" y="1894" width="110" height="40" as="geometry" />
        </mxCell>
        <mxCell id="JhfPwucGBp-IxvxOEwGX-33" value="" style="endArrow=none;html=1;rounded=0;exitX=1;exitY=1;exitDx=0;exitDy=0;entryX=0;entryY=0.5;entryDx=0;entryDy=0;fontStyle=1" edge="1" parent="1" source="JhfPwucGBp-IxvxOEwGX-222" target="JhfPwucGBp-IxvxOEwGX-32">
          <mxGeometry width="50" height="50" relative="1" as="geometry">
            <mxPoint x="2550.0000000000005" y="1889" as="sourcePoint" />
            <mxPoint x="2610" y="1884" as="targetPoint" />
          </mxGeometry>
        </mxCell>
        <mxCell id="JhfPwucGBp-IxvxOEwGX-34" value="MATKHAU" style="ellipse;whiteSpace=wrap;html=1;fontStyle=1" vertex="1" parent="1">
          <mxGeometry x="2260" y="1824" width="110" height="40" as="geometry" />
        </mxCell>
        <mxCell id="JhfPwucGBp-IxvxOEwGX-35" value="" style="endArrow=none;html=1;rounded=0;exitX=0;exitY=0.5;exitDx=0;exitDy=0;entryX=1;entryY=0.5;entryDx=0;entryDy=0;fontStyle=1" edge="1" parent="1" source="JhfPwucGBp-IxvxOEwGX-222" target="JhfPwucGBp-IxvxOEwGX-34">
          <mxGeometry width="50" height="50" relative="1" as="geometry">
            <mxPoint x="2430.0000000000005" y="1859" as="sourcePoint" />
            <mxPoint x="2300" y="1689" as="targetPoint" />
          </mxGeometry>
        </mxCell>
        <mxCell id="JhfPwucGBp-IxvxOEwGX-36" value="&lt;u&gt;MAKH&lt;/u&gt;" style="ellipse;whiteSpace=wrap;html=1;fontStyle=1" vertex="1" parent="1">
          <mxGeometry x="2264" y="1754" width="110" height="40" as="geometry" />
        </mxCell>
        <mxCell id="JhfPwucGBp-IxvxOEwGX-37" value="" style="endArrow=none;html=1;rounded=0;exitX=0;exitY=0;exitDx=0;exitDy=0;entryX=1;entryY=0.5;entryDx=0;entryDy=0;fontStyle=1" edge="1" parent="1" source="JhfPwucGBp-IxvxOEwGX-222" target="JhfPwucGBp-IxvxOEwGX-36">
          <mxGeometry width="50" height="50" relative="1" as="geometry">
            <mxPoint x="2460.0000000000005" y="1844" as="sourcePoint" />
            <mxPoint x="2330" y="1589" as="targetPoint" />
          </mxGeometry>
        </mxCell>
        <mxCell id="JhfPwucGBp-IxvxOEwGX-38" value="GIOITINH" style="ellipse;whiteSpace=wrap;html=1;fontStyle=1" vertex="1" parent="1">
          <mxGeometry x="2260" y="1904" width="110" height="40" as="geometry" />
        </mxCell>
        <mxCell id="JhfPwucGBp-IxvxOEwGX-39" value="" style="endArrow=none;html=1;rounded=0;exitX=0;exitY=1;exitDx=0;exitDy=0;entryX=1;entryY=0.5;entryDx=0;entryDy=0;fontStyle=1" edge="1" parent="1" source="JhfPwucGBp-IxvxOEwGX-222" target="JhfPwucGBp-IxvxOEwGX-38">
          <mxGeometry width="50" height="50" relative="1" as="geometry">
            <mxPoint x="2430.0000000000005" y="1874" as="sourcePoint" />
            <mxPoint x="2300" y="1769" as="targetPoint" />
          </mxGeometry>
        </mxCell>
        <mxCell id="JhfPwucGBp-IxvxOEwGX-40" value="HOTEN" style="ellipse;whiteSpace=wrap;html=1;fontStyle=1" vertex="1" parent="1">
          <mxGeometry x="2250" y="1979" width="110" height="40" as="geometry" />
        </mxCell>
        <mxCell id="JhfPwucGBp-IxvxOEwGX-41" value="" style="endArrow=none;html=1;rounded=0;exitX=0;exitY=1;exitDx=0;exitDy=0;entryX=1;entryY=0.5;entryDx=0;entryDy=0;fontStyle=1" edge="1" parent="1" source="JhfPwucGBp-IxvxOEwGX-222" target="JhfPwucGBp-IxvxOEwGX-40">
          <mxGeometry width="50" height="50" relative="1" as="geometry">
            <mxPoint x="2430.0000000000005" y="1889" as="sourcePoint" />
            <mxPoint x="2290" y="1844" as="targetPoint" />
          </mxGeometry>
        </mxCell>
        <mxCell id="JhfPwucGBp-IxvxOEwGX-42" value="NGAYSINH" style="ellipse;whiteSpace=wrap;html=1;fontStyle=1" vertex="1" parent="1">
          <mxGeometry x="2320" y="2044" width="110" height="40" as="geometry" />
        </mxCell>
        <mxCell id="JhfPwucGBp-IxvxOEwGX-43" value="" style="endArrow=none;html=1;rounded=0;exitX=0.246;exitY=0.714;exitDx=0;exitDy=0;entryX=0.5;entryY=0;entryDx=0;entryDy=0;fontStyle=1;exitPerimeter=0;" edge="1" parent="1" source="JhfPwucGBp-IxvxOEwGX-222" target="JhfPwucGBp-IxvxOEwGX-42">
          <mxGeometry width="50" height="50" relative="1" as="geometry">
            <mxPoint x="2460.0000000000005" y="1904" as="sourcePoint" />
            <mxPoint x="2445" y="1844" as="targetPoint" />
          </mxGeometry>
        </mxCell>
        <mxCell id="JhfPwucGBp-IxvxOEwGX-44" value="DIACHI" style="ellipse;whiteSpace=wrap;html=1;fontStyle=1" vertex="1" parent="1">
          <mxGeometry x="2450" y="2059" width="110" height="40" as="geometry" />
        </mxCell>
        <mxCell id="JhfPwucGBp-IxvxOEwGX-45" value="" style="endArrow=none;html=1;rounded=0;entryX=0.5;entryY=0;entryDx=0;entryDy=0;fontStyle=1;exitX=0;exitY=1;exitDx=0;exitDy=0;" edge="1" parent="1" source="JhfPwucGBp-IxvxOEwGX-222" target="JhfPwucGBp-IxvxOEwGX-44">
          <mxGeometry width="50" height="50" relative="1" as="geometry">
            <mxPoint x="2460" y="1884" as="sourcePoint" />
            <mxPoint x="2575" y="1859" as="targetPoint" />
          </mxGeometry>
        </mxCell>
        <mxCell id="JhfPwucGBp-IxvxOEwGX-46" value="EMAIL" style="ellipse;whiteSpace=wrap;html=1;fontStyle=1" vertex="1" parent="1">
          <mxGeometry x="2550" y="2114" width="110" height="40" as="geometry" />
        </mxCell>
        <mxCell id="JhfPwucGBp-IxvxOEwGX-47" value="" style="endArrow=none;html=1;rounded=0;exitX=1;exitY=1;exitDx=0;exitDy=0;entryX=0.5;entryY=0;entryDx=0;entryDy=0;fontStyle=1" edge="1" parent="1" source="JhfPwucGBp-IxvxOEwGX-222" target="JhfPwucGBp-IxvxOEwGX-46">
          <mxGeometry width="50" height="50" relative="1" as="geometry">
            <mxPoint x="2520.0000000000005" y="1904" as="sourcePoint" />
            <mxPoint x="2725" y="1899" as="targetPoint" />
          </mxGeometry>
        </mxCell>
        <mxCell id="JhfPwucGBp-IxvxOEwGX-48" value="HINH" style="ellipse;whiteSpace=wrap;html=1;fontStyle=1" vertex="1" parent="1">
          <mxGeometry x="2630" y="2074" width="110" height="40" as="geometry" />
        </mxCell>
        <mxCell id="JhfPwucGBp-IxvxOEwGX-49" value="" style="endArrow=none;html=1;rounded=0;exitX=1;exitY=1;exitDx=0;exitDy=0;entryX=0.5;entryY=0;entryDx=0;entryDy=0;fontStyle=1" edge="1" parent="1" source="JhfPwucGBp-IxvxOEwGX-222" target="JhfPwucGBp-IxvxOEwGX-48">
          <mxGeometry width="50" height="50" relative="1" as="geometry">
            <mxPoint x="2520.0000000000005" y="1904" as="sourcePoint" />
            <mxPoint x="2755" y="1859" as="targetPoint" />
          </mxGeometry>
        </mxCell>
        <mxCell id="JhfPwucGBp-IxvxOEwGX-50" value="HIEULUC" style="ellipse;whiteSpace=wrap;html=1;fontStyle=1" vertex="1" parent="1">
          <mxGeometry x="2670" y="1989" width="110" height="40" as="geometry" />
        </mxCell>
        <mxCell id="JhfPwucGBp-IxvxOEwGX-51" value="" style="endArrow=none;html=1;rounded=0;exitX=1;exitY=1;exitDx=0;exitDy=0;entryX=0.5;entryY=0;entryDx=0;entryDy=0;fontStyle=1" edge="1" parent="1" source="JhfPwucGBp-IxvxOEwGX-222" target="JhfPwucGBp-IxvxOEwGX-50">
          <mxGeometry width="50" height="50" relative="1" as="geometry">
            <mxPoint x="2520.0000000000005" y="1904" as="sourcePoint" />
            <mxPoint x="2795" y="1789" as="targetPoint" />
          </mxGeometry>
        </mxCell>
        <mxCell id="JhfPwucGBp-IxvxOEwGX-52" value="DIENTHOAI" style="ellipse;whiteSpace=wrap;html=1;fontStyle=1" vertex="1" parent="1">
          <mxGeometry x="2374" y="2114" width="110" height="40" as="geometry" />
        </mxCell>
        <mxCell id="JhfPwucGBp-IxvxOEwGX-53" value="" style="endArrow=none;html=1;rounded=0;exitX=0;exitY=1;exitDx=0;exitDy=0;entryX=0.5;entryY=0;entryDx=0;entryDy=0;fontStyle=1" edge="1" parent="1" source="JhfPwucGBp-IxvxOEwGX-222" target="JhfPwucGBp-IxvxOEwGX-52">
          <mxGeometry width="50" height="50" relative="1" as="geometry">
            <mxPoint x="2460.0000000000005" y="1904" as="sourcePoint" />
            <mxPoint x="2515" y="1909" as="targetPoint" />
          </mxGeometry>
        </mxCell>
        <mxCell id="JhfPwucGBp-IxvxOEwGX-54" value="" style="endArrow=none;html=1;rounded=0;exitX=0.5;exitY=1;exitDx=0;exitDy=0;entryX=0.5;entryY=0;entryDx=0;entryDy=0;" edge="1" parent="1" target="JhfPwucGBp-IxvxOEwGX-22">
          <mxGeometry width="50" height="50" relative="1" as="geometry">
            <mxPoint x="3360" y="1920" as="sourcePoint" />
            <mxPoint x="3375" y="2095" as="targetPoint" />
          </mxGeometry>
        </mxCell>
        <mxCell id="JhfPwucGBp-IxvxOEwGX-55" value="LOAI" style="rounded=0;whiteSpace=wrap;html=1;fontStyle=1" vertex="1" parent="1">
          <mxGeometry x="4025" y="1839" width="120" height="60" as="geometry" />
        </mxCell>
        <mxCell id="JhfPwucGBp-IxvxOEwGX-56" value="MoTa" style="ellipse;whiteSpace=wrap;html=1;fontStyle=1" vertex="1" parent="1">
          <mxGeometry x="3870" y="1859" width="110" height="40" as="geometry" />
        </mxCell>
        <mxCell id="JhfPwucGBp-IxvxOEwGX-57" value="" style="endArrow=none;html=1;rounded=0;exitX=0;exitY=0.25;exitDx=0;exitDy=0;entryX=1;entryY=0.5;entryDx=0;entryDy=0;fontStyle=1" edge="1" parent="1" source="JhfPwucGBp-IxvxOEwGX-55" target="JhfPwucGBp-IxvxOEwGX-56">
          <mxGeometry width="50" height="50" relative="1" as="geometry">
            <mxPoint x="3865" y="1849" as="sourcePoint" />
            <mxPoint x="3895" y="1684" as="targetPoint" />
          </mxGeometry>
        </mxCell>
        <mxCell id="JhfPwucGBp-IxvxOEwGX-58" value="Hinh" style="ellipse;whiteSpace=wrap;html=1;fontStyle=1" vertex="1" parent="1">
          <mxGeometry x="4200" y="1869" width="110" height="40" as="geometry" />
        </mxCell>
        <mxCell id="JhfPwucGBp-IxvxOEwGX-59" value="" style="endArrow=none;html=1;rounded=0;exitX=0.994;exitY=0.581;exitDx=0;exitDy=0;entryX=0;entryY=0.5;entryDx=0;entryDy=0;fontStyle=1;exitPerimeter=0;" edge="1" parent="1" source="JhfPwucGBp-IxvxOEwGX-55" target="JhfPwucGBp-IxvxOEwGX-58">
          <mxGeometry width="50" height="50" relative="1" as="geometry">
            <mxPoint x="4055" y="1734" as="sourcePoint" />
            <mxPoint x="3925" y="1584" as="targetPoint" />
          </mxGeometry>
        </mxCell>
        <mxCell id="JhfPwucGBp-IxvxOEwGX-60" value="TenLoaiAlias" style="ellipse;whiteSpace=wrap;html=1;fontStyle=1" vertex="1" parent="1">
          <mxGeometry x="3925" y="1939" width="110" height="40" as="geometry" />
        </mxCell>
        <mxCell id="JhfPwucGBp-IxvxOEwGX-61" value="" style="endArrow=none;html=1;rounded=0;exitX=0;exitY=0.5;exitDx=0;exitDy=0;entryX=0.5;entryY=0;entryDx=0;entryDy=0;fontStyle=1" edge="1" parent="1" source="JhfPwucGBp-IxvxOEwGX-55" target="JhfPwucGBp-IxvxOEwGX-60">
          <mxGeometry width="50" height="50" relative="1" as="geometry">
            <mxPoint x="4025" y="1914" as="sourcePoint" />
            <mxPoint x="3895" y="1764" as="targetPoint" />
          </mxGeometry>
        </mxCell>
        <mxCell id="JhfPwucGBp-IxvxOEwGX-62" value="TenLoai" style="ellipse;whiteSpace=wrap;html=1;fontStyle=1" vertex="1" parent="1">
          <mxGeometry x="4130" y="1949" width="110" height="40" as="geometry" />
        </mxCell>
        <mxCell id="JhfPwucGBp-IxvxOEwGX-63" value="" style="endArrow=none;html=1;rounded=0;exitX=0.787;exitY=1.016;exitDx=0;exitDy=0;entryX=0.5;entryY=0;entryDx=0;entryDy=0;fontStyle=1;exitPerimeter=0;" edge="1" parent="1" source="JhfPwucGBp-IxvxOEwGX-55" target="JhfPwucGBp-IxvxOEwGX-62">
          <mxGeometry width="50" height="50" relative="1" as="geometry">
            <mxPoint x="4015" y="1939" as="sourcePoint" />
            <mxPoint x="3885" y="1839" as="targetPoint" />
          </mxGeometry>
        </mxCell>
        <mxCell id="JhfPwucGBp-IxvxOEwGX-64" value="&lt;u&gt;MaLoai &lt;/u&gt;" style="ellipse;whiteSpace=wrap;html=1;fontStyle=1" vertex="1" parent="1">
          <mxGeometry x="4035" y="1989" width="110" height="40" as="geometry" />
        </mxCell>
        <mxCell id="JhfPwucGBp-IxvxOEwGX-65" value="" style="endArrow=none;html=1;rounded=0;exitX=0.25;exitY=1;exitDx=0;exitDy=0;entryX=0.5;entryY=0;entryDx=0;entryDy=0;fontStyle=1" edge="1" parent="1" source="JhfPwucGBp-IxvxOEwGX-55" target="JhfPwucGBp-IxvxOEwGX-64">
          <mxGeometry width="50" height="50" relative="1" as="geometry">
            <mxPoint x="4170" y="1939" as="sourcePoint" />
            <mxPoint x="4040" y="1839" as="targetPoint" />
          </mxGeometry>
        </mxCell>
        <mxCell id="JhfPwucGBp-IxvxOEwGX-66" style="edgeStyle=orthogonalEdgeStyle;rounded=0;orthogonalLoop=1;jettySize=auto;html=1;entryX=0.5;entryY=0;entryDx=0;entryDy=0;endArrow=none;endFill=0;" edge="1" parent="1" source="JhfPwucGBp-IxvxOEwGX-67" target="JhfPwucGBp-IxvxOEwGX-3">
          <mxGeometry relative="1" as="geometry" />
        </mxCell>
        <mxCell id="JhfPwucGBp-IxvxOEwGX-67" value="NHACUNGCAP" style="rounded=0;whiteSpace=wrap;html=1;fontStyle=1" vertex="1" parent="1">
          <mxGeometry x="3658" y="1400" width="120" height="60" as="geometry" />
        </mxCell>
        <mxCell id="JhfPwucGBp-IxvxOEwGX-68" value="DiaChi" style="ellipse;whiteSpace=wrap;html=1;fontStyle=1" vertex="1" parent="1">
          <mxGeometry x="3509" y="1380" width="110" height="40" as="geometry" />
        </mxCell>
        <mxCell id="JhfPwucGBp-IxvxOEwGX-69" value="" style="endArrow=none;html=1;rounded=0;exitX=0;exitY=0.25;exitDx=0;exitDy=0;entryX=1;entryY=0.5;entryDx=0;entryDy=0;fontStyle=1" edge="1" parent="1" source="JhfPwucGBp-IxvxOEwGX-67" target="JhfPwucGBp-IxvxOEwGX-68">
          <mxGeometry width="50" height="50" relative="1" as="geometry">
            <mxPoint x="3498" y="1410" as="sourcePoint" />
            <mxPoint x="3528" y="1245" as="targetPoint" />
          </mxGeometry>
        </mxCell>
        <mxCell id="JhfPwucGBp-IxvxOEwGX-70" value="MoTa" style="ellipse;whiteSpace=wrap;html=1;fontStyle=1" vertex="1" parent="1">
          <mxGeometry x="3805" y="1390" width="110" height="40" as="geometry" />
        </mxCell>
        <mxCell id="JhfPwucGBp-IxvxOEwGX-71" value="" style="endArrow=none;html=1;rounded=0;exitX=1;exitY=0.25;exitDx=0;exitDy=0;entryX=0;entryY=0.5;entryDx=0;entryDy=0;fontStyle=1" edge="1" parent="1" source="JhfPwucGBp-IxvxOEwGX-67" target="JhfPwucGBp-IxvxOEwGX-70">
          <mxGeometry width="50" height="50" relative="1" as="geometry">
            <mxPoint x="3688" y="1295" as="sourcePoint" />
            <mxPoint x="3558" y="1145" as="targetPoint" />
          </mxGeometry>
        </mxCell>
        <mxCell id="JhfPwucGBp-IxvxOEwGX-72" value="DienThoai" style="ellipse;whiteSpace=wrap;html=1;fontStyle=1" vertex="1" parent="1">
          <mxGeometry x="3488" y="1460" width="110" height="40" as="geometry" />
        </mxCell>
        <mxCell id="JhfPwucGBp-IxvxOEwGX-73" value="" style="endArrow=none;html=1;rounded=0;exitX=0;exitY=0.5;exitDx=0;exitDy=0;entryX=1;entryY=0.5;entryDx=0;entryDy=0;fontStyle=1" edge="1" parent="1" source="JhfPwucGBp-IxvxOEwGX-67" target="JhfPwucGBp-IxvxOEwGX-72">
          <mxGeometry width="50" height="50" relative="1" as="geometry">
            <mxPoint x="3658" y="1475" as="sourcePoint" />
            <mxPoint x="3528" y="1325" as="targetPoint" />
          </mxGeometry>
        </mxCell>
        <mxCell id="JhfPwucGBp-IxvxOEwGX-74" value="Email" style="ellipse;whiteSpace=wrap;html=1;fontStyle=1" vertex="1" parent="1">
          <mxGeometry x="3509" y="1540" width="110" height="40" as="geometry" />
        </mxCell>
        <mxCell id="JhfPwucGBp-IxvxOEwGX-75" value="" style="endArrow=none;html=1;rounded=0;exitX=0.067;exitY=1.003;exitDx=0;exitDy=0;entryX=1;entryY=0.5;entryDx=0;entryDy=0;fontStyle=1;exitPerimeter=0;" edge="1" parent="1" source="JhfPwucGBp-IxvxOEwGX-67" target="JhfPwucGBp-IxvxOEwGX-74">
          <mxGeometry width="50" height="50" relative="1" as="geometry">
            <mxPoint x="3648" y="1500" as="sourcePoint" />
            <mxPoint x="3518" y="1400" as="targetPoint" />
          </mxGeometry>
        </mxCell>
        <mxCell id="JhfPwucGBp-IxvxOEwGX-76" value="NguoiLienLac" style="ellipse;whiteSpace=wrap;html=1;fontStyle=1" vertex="1" parent="1">
          <mxGeometry x="3615" y="1560" width="110" height="40" as="geometry" />
        </mxCell>
        <mxCell id="JhfPwucGBp-IxvxOEwGX-77" value="" style="endArrow=none;html=1;rounded=0;exitX=0.25;exitY=1;exitDx=0;exitDy=0;entryX=0.5;entryY=0;entryDx=0;entryDy=0;fontStyle=1" edge="1" parent="1" source="JhfPwucGBp-IxvxOEwGX-67" target="JhfPwucGBp-IxvxOEwGX-76">
          <mxGeometry width="50" height="50" relative="1" as="geometry">
            <mxPoint x="3803" y="1500" as="sourcePoint" />
            <mxPoint x="3673" y="1400" as="targetPoint" />
          </mxGeometry>
        </mxCell>
        <mxCell id="JhfPwucGBp-IxvxOEwGX-78" value="TenCongTy" style="ellipse;whiteSpace=wrap;html=1;fontStyle=1" vertex="1" parent="1">
          <mxGeometry x="3798" y="1520" width="110" height="40" as="geometry" />
        </mxCell>
        <mxCell id="JhfPwucGBp-IxvxOEwGX-79" value="" style="endArrow=none;html=1;rounded=0;exitX=0.5;exitY=1;exitDx=0;exitDy=0;entryX=0.5;entryY=0;entryDx=0;entryDy=0;fontStyle=1" edge="1" parent="1" source="JhfPwucGBp-IxvxOEwGX-67" target="JhfPwucGBp-IxvxOEwGX-78">
          <mxGeometry width="50" height="50" relative="1" as="geometry">
            <mxPoint x="3818" y="1455" as="sourcePoint" />
            <mxPoint x="3803" y="1415" as="targetPoint" />
          </mxGeometry>
        </mxCell>
        <mxCell id="JhfPwucGBp-IxvxOEwGX-80" value="&lt;u&gt;MaNCC &lt;/u&gt;" style="ellipse;whiteSpace=wrap;html=1;fontStyle=1" vertex="1" parent="1">
          <mxGeometry x="3845" y="1460" width="110" height="40" as="geometry" />
        </mxCell>
        <mxCell id="JhfPwucGBp-IxvxOEwGX-81" value="" style="endArrow=none;html=1;rounded=0;exitX=0.75;exitY=1;exitDx=0;exitDy=0;entryX=0.5;entryY=0;entryDx=0;entryDy=0;fontStyle=1" edge="1" parent="1" source="JhfPwucGBp-IxvxOEwGX-67" target="JhfPwucGBp-IxvxOEwGX-80">
          <mxGeometry width="50" height="50" relative="1" as="geometry">
            <mxPoint x="3738" y="1440" as="sourcePoint" />
            <mxPoint x="3953" y="1455" as="targetPoint" />
          </mxGeometry>
        </mxCell>
        <mxCell id="JhfPwucGBp-IxvxOEwGX-82" value="Logo" style="ellipse;whiteSpace=wrap;html=1;fontStyle=1" vertex="1" parent="1">
          <mxGeometry x="3735" y="1560" width="110" height="40" as="geometry" />
        </mxCell>
        <mxCell id="JhfPwucGBp-IxvxOEwGX-83" value="" style="endArrow=none;html=1;rounded=0;exitX=0.5;exitY=1;exitDx=0;exitDy=0;entryX=0.5;entryY=0;entryDx=0;entryDy=0;fontStyle=1" edge="1" parent="1" source="JhfPwucGBp-IxvxOEwGX-67" target="JhfPwucGBp-IxvxOEwGX-82">
          <mxGeometry width="50" height="50" relative="1" as="geometry">
            <mxPoint x="3658" y="1490" as="sourcePoint" />
            <mxPoint x="3743" y="1465" as="targetPoint" />
          </mxGeometry>
        </mxCell>
        <mxCell id="JhfPwucGBp-IxvxOEwGX-84" value="&lt;u&gt;MaTrangThai &lt;/u&gt;" style="ellipse;whiteSpace=wrap;html=1;fontStyle=1" vertex="1" parent="1">
          <mxGeometry x="1210" y="1995" width="110" height="40" as="geometry" />
        </mxCell>
        <mxCell id="JhfPwucGBp-IxvxOEwGX-85" value="" style="endArrow=none;html=1;rounded=0;exitX=0;exitY=1;exitDx=0;exitDy=0;entryX=0.5;entryY=0;entryDx=0;entryDy=0;fontStyle=1" edge="1" parent="1" source="JhfPwucGBp-IxvxOEwGX-224" target="JhfPwucGBp-IxvxOEwGX-84">
          <mxGeometry width="50" height="50" relative="1" as="geometry">
            <mxPoint x="1265" y="1955" as="sourcePoint" />
            <mxPoint x="1105" y="1740" as="targetPoint" />
          </mxGeometry>
        </mxCell>
        <mxCell id="JhfPwucGBp-IxvxOEwGX-86" value="TenTrangThai" style="ellipse;whiteSpace=wrap;html=1;fontStyle=1" vertex="1" parent="1">
          <mxGeometry x="1370" y="1955" width="110" height="40" as="geometry" />
        </mxCell>
        <mxCell id="JhfPwucGBp-IxvxOEwGX-87" value="" style="endArrow=none;html=1;rounded=0;exitX=1;exitY=1;exitDx=0;exitDy=0;entryX=0.5;entryY=0;entryDx=0;entryDy=0;fontStyle=1;" edge="1" parent="1" source="JhfPwucGBp-IxvxOEwGX-224" target="JhfPwucGBp-IxvxOEwGX-86">
          <mxGeometry width="50" height="50" relative="1" as="geometry">
            <mxPoint x="1354.2800000000002" y="1929.86" as="sourcePoint" />
            <mxPoint x="1135" y="1640" as="targetPoint" />
          </mxGeometry>
        </mxCell>
        <mxCell id="JhfPwucGBp-IxvxOEwGX-88" value="MoTa" style="ellipse;whiteSpace=wrap;html=1;fontStyle=1" vertex="1" parent="1">
          <mxGeometry x="1340" y="2015" width="110" height="40" as="geometry" />
        </mxCell>
        <mxCell id="JhfPwucGBp-IxvxOEwGX-89" value="" style="endArrow=none;html=1;rounded=0;exitX=1;exitY=1;exitDx=0;exitDy=0;entryX=0.5;entryY=0;entryDx=0;entryDy=0;fontStyle=1" edge="1" parent="1" source="JhfPwucGBp-IxvxOEwGX-224" target="JhfPwucGBp-IxvxOEwGX-88">
          <mxGeometry width="50" height="50" relative="1" as="geometry">
            <mxPoint x="1295" y="1955" as="sourcePoint" />
            <mxPoint x="1105" y="1820" as="targetPoint" />
          </mxGeometry>
        </mxCell>
        <mxCell id="JhfPwucGBp-IxvxOEwGX-90" style="rounded=0;orthogonalLoop=1;jettySize=auto;html=1;exitX=0.5;exitY=0;exitDx=0;exitDy=0;entryX=0.5;entryY=1;entryDx=0;entryDy=0;edgeStyle=orthogonalEdgeStyle;endArrow=none;endFill=0;" edge="1" parent="1" source="JhfPwucGBp-IxvxOEwGX-92" target="JhfPwucGBp-IxvxOEwGX-220">
          <mxGeometry relative="1" as="geometry" />
        </mxCell>
        <mxCell id="JhfPwucGBp-IxvxOEwGX-91" style="edgeStyle=orthogonalEdgeStyle;rounded=0;orthogonalLoop=1;jettySize=auto;html=1;entryX=0.5;entryY=0;entryDx=0;entryDy=0;endArrow=none;endFill=0;" edge="1" parent="1" source="JhfPwucGBp-IxvxOEwGX-92" target="JhfPwucGBp-IxvxOEwGX-119">
          <mxGeometry relative="1" as="geometry" />
        </mxCell>
        <mxCell id="JhfPwucGBp-IxvxOEwGX-92" value="HOADON" style="rounded=0;whiteSpace=wrap;html=1;fontStyle=1" vertex="1" parent="1">
          <mxGeometry x="1750" y="1820" width="120" height="60" as="geometry" />
        </mxCell>
        <mxCell id="JhfPwucGBp-IxvxOEwGX-93" value="&lt;u&gt;MaHD&amp;nbsp;&lt;/u&gt;" style="ellipse;whiteSpace=wrap;html=1;fontStyle=1" vertex="1" parent="1">
          <mxGeometry x="1870" y="1740" width="110" height="40" as="geometry" />
        </mxCell>
        <mxCell id="JhfPwucGBp-IxvxOEwGX-94" value="&lt;u&gt;MaKH&amp;nbsp;&lt;/u&gt;" style="ellipse;whiteSpace=wrap;html=1;fontStyle=1" vertex="1" parent="1">
          <mxGeometry x="1920" y="1810" width="110" height="40" as="geometry" />
        </mxCell>
        <mxCell id="JhfPwucGBp-IxvxOEwGX-95" value="" style="endArrow=none;html=1;rounded=0;exitX=0;exitY=0.5;exitDx=0;exitDy=0;entryX=0.75;entryY=0;entryDx=0;entryDy=0;fontStyle=1" edge="1" parent="1" source="JhfPwucGBp-IxvxOEwGX-93" target="JhfPwucGBp-IxvxOEwGX-92">
          <mxGeometry width="50" height="50" relative="1" as="geometry">
            <mxPoint x="1860" y="1810" as="sourcePoint" />
            <mxPoint x="1910" y="1760" as="targetPoint" />
          </mxGeometry>
        </mxCell>
        <mxCell id="JhfPwucGBp-IxvxOEwGX-96" value="" style="endArrow=none;html=1;rounded=0;exitX=0.75;exitY=0;exitDx=0;exitDy=0;entryX=0;entryY=0.5;entryDx=0;entryDy=0;fontStyle=1" edge="1" parent="1" target="JhfPwucGBp-IxvxOEwGX-94">
          <mxGeometry width="50" height="50" relative="1" as="geometry">
            <mxPoint x="1870" y="1850" as="sourcePoint" />
            <mxPoint x="1940" y="1790" as="targetPoint" />
          </mxGeometry>
        </mxCell>
        <mxCell id="JhfPwucGBp-IxvxOEwGX-97" value="NgayDat" style="ellipse;whiteSpace=wrap;html=1;fontStyle=1" vertex="1" parent="1">
          <mxGeometry x="1930" y="1870" width="110" height="40" as="geometry" />
        </mxCell>
        <mxCell id="JhfPwucGBp-IxvxOEwGX-98" value="" style="endArrow=none;html=1;rounded=0;exitX=0.75;exitY=1;exitDx=0;exitDy=0;entryX=0;entryY=0.5;entryDx=0;entryDy=0;fontStyle=1" edge="1" parent="1" source="JhfPwucGBp-IxvxOEwGX-92" target="JhfPwucGBp-IxvxOEwGX-97">
          <mxGeometry width="50" height="50" relative="1" as="geometry">
            <mxPoint x="1860" y="1940" as="sourcePoint" />
            <mxPoint x="1930" y="1880" as="targetPoint" />
          </mxGeometry>
        </mxCell>
        <mxCell id="JhfPwucGBp-IxvxOEwGX-99" value="&lt;u&gt;MaNV&amp;nbsp;&lt;/u&gt;" style="ellipse;whiteSpace=wrap;html=1;fontStyle=1" vertex="1" parent="1">
          <mxGeometry x="1580" y="1820" width="110" height="40" as="geometry" />
        </mxCell>
        <mxCell id="JhfPwucGBp-IxvxOEwGX-100" value="" style="endArrow=none;html=1;rounded=0;exitX=0;exitY=0.25;exitDx=0;exitDy=0;entryX=1;entryY=0.5;entryDx=0;entryDy=0;fontStyle=1" edge="1" parent="1" source="JhfPwucGBp-IxvxOEwGX-92" target="JhfPwucGBp-IxvxOEwGX-99">
          <mxGeometry width="50" height="50" relative="1" as="geometry">
            <mxPoint x="1590" y="1850" as="sourcePoint" />
            <mxPoint x="1620" y="1685" as="targetPoint" />
          </mxGeometry>
        </mxCell>
        <mxCell id="JhfPwucGBp-IxvxOEwGX-101" value="GhiChu" style="ellipse;whiteSpace=wrap;html=1;fontStyle=1" vertex="1" parent="1">
          <mxGeometry x="1584" y="1750" width="110" height="40" as="geometry" />
        </mxCell>
        <mxCell id="JhfPwucGBp-IxvxOEwGX-102" value="" style="endArrow=none;html=1;rounded=0;exitX=0.25;exitY=0;exitDx=0;exitDy=0;entryX=1;entryY=0.5;entryDx=0;entryDy=0;fontStyle=1" edge="1" parent="1" source="JhfPwucGBp-IxvxOEwGX-92" target="JhfPwucGBp-IxvxOEwGX-101">
          <mxGeometry width="50" height="50" relative="1" as="geometry">
            <mxPoint x="1780" y="1735" as="sourcePoint" />
            <mxPoint x="1650" y="1585" as="targetPoint" />
          </mxGeometry>
        </mxCell>
        <mxCell id="JhfPwucGBp-IxvxOEwGX-103" value="&lt;u&gt;MaTrangThai&amp;nbsp;&lt;/u&gt;" style="ellipse;whiteSpace=wrap;html=1;fontStyle=1" vertex="1" parent="1">
          <mxGeometry x="1580" y="1900" width="110" height="40" as="geometry" />
        </mxCell>
        <mxCell id="JhfPwucGBp-IxvxOEwGX-104" value="" style="endArrow=none;html=1;rounded=0;exitX=0;exitY=0.5;exitDx=0;exitDy=0;entryX=1;entryY=0.5;entryDx=0;entryDy=0;fontStyle=1" edge="1" parent="1" source="JhfPwucGBp-IxvxOEwGX-92" target="JhfPwucGBp-IxvxOEwGX-103">
          <mxGeometry width="50" height="50" relative="1" as="geometry">
            <mxPoint x="1750" y="1915" as="sourcePoint" />
            <mxPoint x="1620" y="1765" as="targetPoint" />
          </mxGeometry>
        </mxCell>
        <mxCell id="JhfPwucGBp-IxvxOEwGX-105" value="PhiVanChuyen" style="ellipse;whiteSpace=wrap;html=1;fontStyle=1" vertex="1" parent="1">
          <mxGeometry x="1570" y="1975" width="110" height="40" as="geometry" />
        </mxCell>
        <mxCell id="JhfPwucGBp-IxvxOEwGX-106" value="" style="endArrow=none;html=1;rounded=0;exitX=0;exitY=0.75;exitDx=0;exitDy=0;entryX=1;entryY=0.5;entryDx=0;entryDy=0;fontStyle=1" edge="1" parent="1" source="JhfPwucGBp-IxvxOEwGX-92" target="JhfPwucGBp-IxvxOEwGX-105">
          <mxGeometry width="50" height="50" relative="1" as="geometry">
            <mxPoint x="1740" y="1940" as="sourcePoint" />
            <mxPoint x="1610" y="1840" as="targetPoint" />
          </mxGeometry>
        </mxCell>
        <mxCell id="JhfPwucGBp-IxvxOEwGX-107" value="CachVanChuyen" style="ellipse;whiteSpace=wrap;html=1;fontStyle=1" vertex="1" parent="1">
          <mxGeometry x="1640" y="2040" width="110" height="40" as="geometry" />
        </mxCell>
        <mxCell id="JhfPwucGBp-IxvxOEwGX-108" value="" style="endArrow=none;html=1;rounded=0;exitX=0.25;exitY=1;exitDx=0;exitDy=0;entryX=0.5;entryY=0;entryDx=0;entryDy=0;fontStyle=1" edge="1" parent="1" source="JhfPwucGBp-IxvxOEwGX-92" target="JhfPwucGBp-IxvxOEwGX-107">
          <mxGeometry width="50" height="50" relative="1" as="geometry">
            <mxPoint x="1895" y="1940" as="sourcePoint" />
            <mxPoint x="1765" y="1840" as="targetPoint" />
          </mxGeometry>
        </mxCell>
        <mxCell id="JhfPwucGBp-IxvxOEwGX-109" value="DiaChi" style="ellipse;whiteSpace=wrap;html=1;fontStyle=1" vertex="1" parent="1">
          <mxGeometry x="1770" y="2055" width="110" height="40" as="geometry" />
        </mxCell>
        <mxCell id="JhfPwucGBp-IxvxOEwGX-110" value="" style="endArrow=none;html=1;rounded=0;exitX=0.5;exitY=1;exitDx=0;exitDy=0;entryX=0.5;entryY=0;entryDx=0;entryDy=0;fontStyle=1" edge="1" parent="1" source="JhfPwucGBp-IxvxOEwGX-92" target="JhfPwucGBp-IxvxOEwGX-109">
          <mxGeometry width="50" height="50" relative="1" as="geometry">
            <mxPoint x="1910" y="1895" as="sourcePoint" />
            <mxPoint x="1895" y="1855" as="targetPoint" />
          </mxGeometry>
        </mxCell>
        <mxCell id="JhfPwucGBp-IxvxOEwGX-111" value="HoTen" style="ellipse;whiteSpace=wrap;html=1;fontStyle=1" vertex="1" parent="1">
          <mxGeometry x="1870" y="2110" width="110" height="40" as="geometry" />
        </mxCell>
        <mxCell id="JhfPwucGBp-IxvxOEwGX-112" value="NgayGiao" style="ellipse;whiteSpace=wrap;html=1;fontStyle=1" vertex="1" parent="1">
          <mxGeometry x="1950" y="2055" width="110" height="40" as="geometry" />
        </mxCell>
        <mxCell id="JhfPwucGBp-IxvxOEwGX-113" value="" style="endArrow=none;html=1;rounded=0;exitX=0.75;exitY=1;exitDx=0;exitDy=0;entryX=0.5;entryY=0;entryDx=0;entryDy=0;fontStyle=1" edge="1" parent="1" source="JhfPwucGBp-IxvxOEwGX-92" target="JhfPwucGBp-IxvxOEwGX-112">
          <mxGeometry width="50" height="50" relative="1" as="geometry">
            <mxPoint x="1990" y="1880" as="sourcePoint" />
            <mxPoint x="2075" y="1855" as="targetPoint" />
          </mxGeometry>
        </mxCell>
        <mxCell id="JhfPwucGBp-IxvxOEwGX-114" value="NgayCan" style="ellipse;whiteSpace=wrap;html=1;fontStyle=1" vertex="1" parent="1">
          <mxGeometry x="1950" y="1950" width="110" height="40" as="geometry" />
        </mxCell>
        <mxCell id="JhfPwucGBp-IxvxOEwGX-115" value="" style="endArrow=none;html=1;rounded=0;exitX=0.75;exitY=1;exitDx=0;exitDy=0;entryX=0.5;entryY=0;entryDx=0;entryDy=0;fontStyle=1" edge="1" parent="1" source="JhfPwucGBp-IxvxOEwGX-92" target="JhfPwucGBp-IxvxOEwGX-114">
          <mxGeometry width="50" height="50" relative="1" as="geometry">
            <mxPoint x="2030" y="1810" as="sourcePoint" />
            <mxPoint x="2115" y="1785" as="targetPoint" />
          </mxGeometry>
        </mxCell>
        <mxCell id="JhfPwucGBp-IxvxOEwGX-116" value="CachThanhToan" style="ellipse;whiteSpace=wrap;html=1;fontStyle=1" vertex="1" parent="1">
          <mxGeometry x="1694" y="2110" width="110" height="40" as="geometry" />
        </mxCell>
        <mxCell id="JhfPwucGBp-IxvxOEwGX-117" value="" style="endArrow=none;html=1;rounded=0;exitX=0.25;exitY=1;exitDx=0;exitDy=0;entryX=0.5;entryY=0;entryDx=0;entryDy=0;fontStyle=1" edge="1" parent="1" source="JhfPwucGBp-IxvxOEwGX-92" target="JhfPwucGBp-IxvxOEwGX-116">
          <mxGeometry width="50" height="50" relative="1" as="geometry">
            <mxPoint x="1750" y="1930" as="sourcePoint" />
            <mxPoint x="1835" y="1905" as="targetPoint" />
          </mxGeometry>
        </mxCell>
        <mxCell id="JhfPwucGBp-IxvxOEwGX-118" value="" style="endArrow=none;html=1;rounded=0;exitX=0.5;exitY=1;exitDx=0;exitDy=0;entryX=0.5;entryY=0;entryDx=0;entryDy=0;fontStyle=1" edge="1" parent="1" target="JhfPwucGBp-IxvxOEwGX-111">
          <mxGeometry width="50" height="50" relative="1" as="geometry">
            <mxPoint x="1830" y="1880" as="sourcePoint" />
            <mxPoint x="1845" y="2055" as="targetPoint" />
          </mxGeometry>
        </mxCell>
        <mxCell id="JhfPwucGBp-IxvxOEwGX-119" value="CHITIETHD" style="rounded=0;whiteSpace=wrap;html=1;fontStyle=1" vertex="1" parent="1">
          <mxGeometry x="2120" y="2260" width="120" height="60" as="geometry" />
        </mxCell>
        <mxCell id="JhfPwucGBp-IxvxOEwGX-120" value="&lt;u&gt;MaCT &lt;/u&gt;" style="ellipse;whiteSpace=wrap;html=1;fontStyle=1" vertex="1" parent="1">
          <mxGeometry x="1990" y="2250" width="110" height="40" as="geometry" />
        </mxCell>
        <mxCell id="JhfPwucGBp-IxvxOEwGX-121" value="" style="endArrow=none;html=1;rounded=0;exitX=0;exitY=0.25;exitDx=0;exitDy=0;entryX=1;entryY=0.5;entryDx=0;entryDy=0;fontStyle=1" edge="1" parent="1" source="JhfPwucGBp-IxvxOEwGX-119" target="JhfPwucGBp-IxvxOEwGX-120">
          <mxGeometry width="50" height="50" relative="1" as="geometry">
            <mxPoint x="1960" y="2270" as="sourcePoint" />
            <mxPoint x="1990" y="2105" as="targetPoint" />
          </mxGeometry>
        </mxCell>
        <mxCell id="JhfPwucGBp-IxvxOEwGX-122" value="&lt;u&gt;MaHD &lt;/u&gt;" style="ellipse;whiteSpace=wrap;html=1;fontStyle=1" vertex="1" parent="1">
          <mxGeometry x="2250" y="2260" width="110" height="40" as="geometry" />
        </mxCell>
        <mxCell id="JhfPwucGBp-IxvxOEwGX-123" value="" style="endArrow=none;html=1;rounded=0;exitX=1;exitY=0.25;exitDx=0;exitDy=0;entryX=0;entryY=0.5;entryDx=0;entryDy=0;fontStyle=1" edge="1" parent="1" source="JhfPwucGBp-IxvxOEwGX-119" target="JhfPwucGBp-IxvxOEwGX-122">
          <mxGeometry width="50" height="50" relative="1" as="geometry">
            <mxPoint x="2150" y="2155" as="sourcePoint" />
            <mxPoint x="2020" y="2005" as="targetPoint" />
          </mxGeometry>
        </mxCell>
        <mxCell id="JhfPwucGBp-IxvxOEwGX-124" value="&lt;u&gt;MaHH &lt;/u&gt;" style="ellipse;whiteSpace=wrap;html=1;fontStyle=1" vertex="1" parent="1">
          <mxGeometry x="2000" y="2310" width="110" height="40" as="geometry" />
        </mxCell>
        <mxCell id="JhfPwucGBp-IxvxOEwGX-125" value="" style="endArrow=none;html=1;rounded=0;exitX=0;exitY=0.5;exitDx=0;exitDy=0;entryX=1;entryY=0.5;entryDx=0;entryDy=0;fontStyle=1" edge="1" parent="1" source="JhfPwucGBp-IxvxOEwGX-119" target="JhfPwucGBp-IxvxOEwGX-124">
          <mxGeometry width="50" height="50" relative="1" as="geometry">
            <mxPoint x="2120" y="2335" as="sourcePoint" />
            <mxPoint x="1990" y="2185" as="targetPoint" />
          </mxGeometry>
        </mxCell>
        <mxCell id="JhfPwucGBp-IxvxOEwGX-126" value="SoLuong" style="ellipse;whiteSpace=wrap;html=1;fontStyle=1" vertex="1" parent="1">
          <mxGeometry x="2090" y="2350" width="110" height="40" as="geometry" />
        </mxCell>
        <mxCell id="JhfPwucGBp-IxvxOEwGX-127" value="" style="endArrow=none;html=1;rounded=0;exitX=0.5;exitY=1;exitDx=0;exitDy=0;entryX=0.5;entryY=0;entryDx=0;entryDy=0;fontStyle=1;" edge="1" parent="1" source="JhfPwucGBp-IxvxOEwGX-119" target="JhfPwucGBp-IxvxOEwGX-126">
          <mxGeometry width="50" height="50" relative="1" as="geometry">
            <mxPoint x="2110" y="2360" as="sourcePoint" />
            <mxPoint x="1980" y="2260" as="targetPoint" />
          </mxGeometry>
        </mxCell>
        <mxCell id="JhfPwucGBp-IxvxOEwGX-128" value="GiamGia" style="ellipse;whiteSpace=wrap;html=1;fontStyle=1" vertex="1" parent="1">
          <mxGeometry x="2220" y="2340" width="110" height="40" as="geometry" />
        </mxCell>
        <mxCell id="JhfPwucGBp-IxvxOEwGX-129" value="" style="endArrow=none;html=1;rounded=0;exitX=0.75;exitY=1;exitDx=0;exitDy=0;entryX=0.5;entryY=0;entryDx=0;entryDy=0;fontStyle=1" edge="1" parent="1" source="JhfPwucGBp-IxvxOEwGX-119" target="JhfPwucGBp-IxvxOEwGX-128">
          <mxGeometry width="50" height="50" relative="1" as="geometry">
            <mxPoint x="2265" y="2360" as="sourcePoint" />
            <mxPoint x="2135" y="2260" as="targetPoint" />
          </mxGeometry>
        </mxCell>
        <mxCell id="JhfPwucGBp-IxvxOEwGX-130" style="edgeStyle=orthogonalEdgeStyle;rounded=0;orthogonalLoop=1;jettySize=auto;html=1;endArrow=none;endFill=0;" edge="1" parent="1" source="JhfPwucGBp-IxvxOEwGX-131">
          <mxGeometry relative="1" as="geometry">
            <mxPoint x="2480" y="1849.4117647058824" as="targetPoint" />
          </mxGeometry>
        </mxCell>
        <mxCell id="JhfPwucGBp-IxvxOEwGX-131" value="YEUTHICH" style="rounded=0;whiteSpace=wrap;html=1;fontStyle=1" vertex="1" parent="1">
          <mxGeometry x="2904" y="1410" width="120" height="60" as="geometry" />
        </mxCell>
        <mxCell id="JhfPwucGBp-IxvxOEwGX-132" value="&lt;u&gt;MaYT  &lt;/u&gt;" style="ellipse;whiteSpace=wrap;html=1;fontStyle=1" vertex="1" parent="1">
          <mxGeometry x="2774" y="1400" width="110" height="40" as="geometry" />
        </mxCell>
        <mxCell id="JhfPwucGBp-IxvxOEwGX-133" value="" style="endArrow=none;html=1;rounded=0;exitX=0;exitY=0.25;exitDx=0;exitDy=0;entryX=1;entryY=0.5;entryDx=0;entryDy=0;fontStyle=1" edge="1" parent="1" source="JhfPwucGBp-IxvxOEwGX-131" target="JhfPwucGBp-IxvxOEwGX-132">
          <mxGeometry width="50" height="50" relative="1" as="geometry">
            <mxPoint x="2744" y="1420" as="sourcePoint" />
            <mxPoint x="2774" y="1255" as="targetPoint" />
          </mxGeometry>
        </mxCell>
        <mxCell id="JhfPwucGBp-IxvxOEwGX-134" value="&lt;u&gt;MaHH  &lt;/u&gt;" style="ellipse;whiteSpace=wrap;html=1;fontStyle=1" vertex="1" parent="1">
          <mxGeometry x="3034" y="1410" width="110" height="40" as="geometry" />
        </mxCell>
        <mxCell id="JhfPwucGBp-IxvxOEwGX-135" value="" style="endArrow=none;html=1;rounded=0;exitX=1;exitY=0.25;exitDx=0;exitDy=0;entryX=0;entryY=0.5;entryDx=0;entryDy=0;fontStyle=1" edge="1" parent="1" source="JhfPwucGBp-IxvxOEwGX-131" target="JhfPwucGBp-IxvxOEwGX-134">
          <mxGeometry width="50" height="50" relative="1" as="geometry">
            <mxPoint x="2934" y="1305" as="sourcePoint" />
            <mxPoint x="2804" y="1155" as="targetPoint" />
          </mxGeometry>
        </mxCell>
        <mxCell id="JhfPwucGBp-IxvxOEwGX-136" value="&lt;u&gt;MaKH  &lt;/u&gt;" style="ellipse;whiteSpace=wrap;html=1;fontStyle=1" vertex="1" parent="1">
          <mxGeometry x="2784" y="1460" width="110" height="40" as="geometry" />
        </mxCell>
        <mxCell id="JhfPwucGBp-IxvxOEwGX-137" value="" style="endArrow=none;html=1;rounded=0;exitX=0;exitY=0.5;exitDx=0;exitDy=0;entryX=1;entryY=0.5;entryDx=0;entryDy=0;fontStyle=1" edge="1" parent="1" source="JhfPwucGBp-IxvxOEwGX-131" target="JhfPwucGBp-IxvxOEwGX-136">
          <mxGeometry width="50" height="50" relative="1" as="geometry">
            <mxPoint x="2904" y="1485" as="sourcePoint" />
            <mxPoint x="2774" y="1335" as="targetPoint" />
          </mxGeometry>
        </mxCell>
        <mxCell id="JhfPwucGBp-IxvxOEwGX-138" value="NgayChon" style="ellipse;whiteSpace=wrap;html=1;fontStyle=1" vertex="1" parent="1">
          <mxGeometry x="2874" y="1500" width="110" height="40" as="geometry" />
        </mxCell>
        <mxCell id="JhfPwucGBp-IxvxOEwGX-139" value="" style="endArrow=none;html=1;rounded=0;exitX=0.5;exitY=1;exitDx=0;exitDy=0;entryX=0.5;entryY=0;entryDx=0;entryDy=0;fontStyle=1;" edge="1" parent="1" source="JhfPwucGBp-IxvxOEwGX-131" target="JhfPwucGBp-IxvxOEwGX-138">
          <mxGeometry width="50" height="50" relative="1" as="geometry">
            <mxPoint x="2894" y="1510" as="sourcePoint" />
            <mxPoint x="2764" y="1410" as="targetPoint" />
          </mxGeometry>
        </mxCell>
        <mxCell id="JhfPwucGBp-IxvxOEwGX-140" value="MoTa" style="ellipse;whiteSpace=wrap;html=1;fontStyle=1" vertex="1" parent="1">
          <mxGeometry x="3004" y="1490" width="110" height="40" as="geometry" />
        </mxCell>
        <mxCell id="JhfPwucGBp-IxvxOEwGX-141" value="" style="endArrow=none;html=1;rounded=0;exitX=0.75;exitY=1;exitDx=0;exitDy=0;entryX=0.5;entryY=0;entryDx=0;entryDy=0;fontStyle=1" edge="1" parent="1" source="JhfPwucGBp-IxvxOEwGX-131" target="JhfPwucGBp-IxvxOEwGX-140">
          <mxGeometry width="50" height="50" relative="1" as="geometry">
            <mxPoint x="3049" y="1510" as="sourcePoint" />
            <mxPoint x="2919" y="1410" as="targetPoint" />
          </mxGeometry>
        </mxCell>
        <mxCell id="JhfPwucGBp-IxvxOEwGX-142" value="GOPY" style="rounded=0;whiteSpace=wrap;html=1;fontStyle=1" vertex="1" parent="1">
          <mxGeometry x="1824" y="900" width="120" height="60" as="geometry" />
        </mxCell>
        <mxCell id="JhfPwucGBp-IxvxOEwGX-143" value="NgayTL" style="ellipse;whiteSpace=wrap;html=1;fontStyle=1" vertex="1" parent="1">
          <mxGeometry x="1675" y="880" width="110" height="40" as="geometry" />
        </mxCell>
        <mxCell id="JhfPwucGBp-IxvxOEwGX-144" value="" style="endArrow=none;html=1;rounded=0;exitX=0;exitY=0.25;exitDx=0;exitDy=0;entryX=1;entryY=0.5;entryDx=0;entryDy=0;fontStyle=1" edge="1" parent="1" source="JhfPwucGBp-IxvxOEwGX-142" target="JhfPwucGBp-IxvxOEwGX-143">
          <mxGeometry width="50" height="50" relative="1" as="geometry">
            <mxPoint x="1664" y="910" as="sourcePoint" />
            <mxPoint x="1694" y="745" as="targetPoint" />
          </mxGeometry>
        </mxCell>
        <mxCell id="JhfPwucGBp-IxvxOEwGX-145" value="NoiDung" style="ellipse;whiteSpace=wrap;html=1;fontStyle=1" vertex="1" parent="1">
          <mxGeometry x="2004" y="890" width="110" height="40" as="geometry" />
        </mxCell>
        <mxCell id="JhfPwucGBp-IxvxOEwGX-146" value="" style="endArrow=none;html=1;rounded=0;exitX=1;exitY=0.25;exitDx=0;exitDy=0;entryX=0;entryY=0.5;entryDx=0;entryDy=0;fontStyle=1" edge="1" parent="1" source="JhfPwucGBp-IxvxOEwGX-142" target="JhfPwucGBp-IxvxOEwGX-145">
          <mxGeometry width="50" height="50" relative="1" as="geometry">
            <mxPoint x="1854" y="795" as="sourcePoint" />
            <mxPoint x="1724" y="645" as="targetPoint" />
          </mxGeometry>
        </mxCell>
        <mxCell id="JhfPwucGBp-IxvxOEwGX-147" value="TraLoi" style="ellipse;whiteSpace=wrap;html=1;fontStyle=1" vertex="1" parent="1">
          <mxGeometry x="1654" y="960" width="110" height="40" as="geometry" />
        </mxCell>
        <mxCell id="JhfPwucGBp-IxvxOEwGX-148" value="" style="endArrow=none;html=1;rounded=0;exitX=0;exitY=0.5;exitDx=0;exitDy=0;entryX=1;entryY=0.5;entryDx=0;entryDy=0;fontStyle=1" edge="1" parent="1" source="JhfPwucGBp-IxvxOEwGX-142" target="JhfPwucGBp-IxvxOEwGX-147">
          <mxGeometry width="50" height="50" relative="1" as="geometry">
            <mxPoint x="1824" y="975" as="sourcePoint" />
            <mxPoint x="1694" y="825" as="targetPoint" />
          </mxGeometry>
        </mxCell>
        <mxCell id="JhfPwucGBp-IxvxOEwGX-149" value="CanTraLoi" style="ellipse;whiteSpace=wrap;html=1;fontStyle=1" vertex="1" parent="1">
          <mxGeometry x="1675" y="1040" width="110" height="40" as="geometry" />
        </mxCell>
        <mxCell id="JhfPwucGBp-IxvxOEwGX-150" value="" style="endArrow=none;html=1;rounded=0;exitX=0.067;exitY=1.003;exitDx=0;exitDy=0;entryX=1;entryY=0.5;entryDx=0;entryDy=0;fontStyle=1;exitPerimeter=0;" edge="1" parent="1" source="JhfPwucGBp-IxvxOEwGX-142" target="JhfPwucGBp-IxvxOEwGX-149">
          <mxGeometry width="50" height="50" relative="1" as="geometry">
            <mxPoint x="1814" y="1000" as="sourcePoint" />
            <mxPoint x="1684" y="900" as="targetPoint" />
          </mxGeometry>
        </mxCell>
        <mxCell id="JhfPwucGBp-IxvxOEwGX-151" value="DienThoai" style="ellipse;whiteSpace=wrap;html=1;fontStyle=1" vertex="1" parent="1">
          <mxGeometry x="1781" y="1060" width="110" height="40" as="geometry" />
        </mxCell>
        <mxCell id="JhfPwucGBp-IxvxOEwGX-152" value="" style="endArrow=none;html=1;rounded=0;exitX=0.25;exitY=1;exitDx=0;exitDy=0;entryX=0.5;entryY=0;entryDx=0;entryDy=0;fontStyle=1" edge="1" parent="1" source="JhfPwucGBp-IxvxOEwGX-142" target="JhfPwucGBp-IxvxOEwGX-151">
          <mxGeometry width="50" height="50" relative="1" as="geometry">
            <mxPoint x="1969" y="1000" as="sourcePoint" />
            <mxPoint x="1839" y="900" as="targetPoint" />
          </mxGeometry>
        </mxCell>
        <mxCell id="JhfPwucGBp-IxvxOEwGX-153" value="HoTen" style="ellipse;whiteSpace=wrap;html=1;fontStyle=1" vertex="1" parent="1">
          <mxGeometry x="1964" y="1020" width="110" height="40" as="geometry" />
        </mxCell>
        <mxCell id="JhfPwucGBp-IxvxOEwGX-154" value="" style="endArrow=none;html=1;rounded=0;exitX=0.5;exitY=1;exitDx=0;exitDy=0;entryX=0.5;entryY=0;entryDx=0;entryDy=0;fontStyle=1" edge="1" parent="1" source="JhfPwucGBp-IxvxOEwGX-142" target="JhfPwucGBp-IxvxOEwGX-153">
          <mxGeometry width="50" height="50" relative="1" as="geometry">
            <mxPoint x="1984" y="955" as="sourcePoint" />
            <mxPoint x="1969" y="915" as="targetPoint" />
          </mxGeometry>
        </mxCell>
        <mxCell id="JhfPwucGBp-IxvxOEwGX-155" value="NgayGY" style="ellipse;whiteSpace=wrap;html=1;fontStyle=1" vertex="1" parent="1">
          <mxGeometry x="2011" y="960" width="110" height="40" as="geometry" />
        </mxCell>
        <mxCell id="JhfPwucGBp-IxvxOEwGX-156" value="" style="endArrow=none;html=1;rounded=0;exitX=0.75;exitY=1;exitDx=0;exitDy=0;entryX=0.5;entryY=0;entryDx=0;entryDy=0;fontStyle=1" edge="1" parent="1" source="JhfPwucGBp-IxvxOEwGX-142" target="JhfPwucGBp-IxvxOEwGX-155">
          <mxGeometry width="50" height="50" relative="1" as="geometry">
            <mxPoint x="1904" y="940" as="sourcePoint" />
            <mxPoint x="2119" y="955" as="targetPoint" />
          </mxGeometry>
        </mxCell>
        <mxCell id="JhfPwucGBp-IxvxOEwGX-157" value="Email" style="ellipse;whiteSpace=wrap;html=1;fontStyle=1" vertex="1" parent="1">
          <mxGeometry x="1901" y="1060" width="110" height="40" as="geometry" />
        </mxCell>
        <mxCell id="JhfPwucGBp-IxvxOEwGX-158" value="" style="endArrow=none;html=1;rounded=0;exitX=0.5;exitY=1;exitDx=0;exitDy=0;entryX=0.5;entryY=0;entryDx=0;entryDy=0;fontStyle=1" edge="1" parent="1" source="JhfPwucGBp-IxvxOEwGX-142" target="JhfPwucGBp-IxvxOEwGX-157">
          <mxGeometry width="50" height="50" relative="1" as="geometry">
            <mxPoint x="1824" y="990" as="sourcePoint" />
            <mxPoint x="1909" y="965" as="targetPoint" />
          </mxGeometry>
        </mxCell>
        <mxCell id="JhfPwucGBp-IxvxOEwGX-159" value="MaCD" style="ellipse;whiteSpace=wrap;html=1;fontStyle=1" vertex="1" parent="1">
          <mxGeometry x="2008" y="810" width="110" height="40" as="geometry" />
        </mxCell>
        <mxCell id="JhfPwucGBp-IxvxOEwGX-160" value="" style="endArrow=none;html=1;rounded=0;exitX=0.75;exitY=0;exitDx=0;exitDy=0;entryX=0;entryY=0.5;entryDx=0;entryDy=0;fontStyle=1" edge="1" parent="1" source="JhfPwucGBp-IxvxOEwGX-142" target="JhfPwucGBp-IxvxOEwGX-159">
          <mxGeometry width="50" height="50" relative="1" as="geometry">
            <mxPoint x="1948" y="835" as="sourcePoint" />
            <mxPoint x="1728" y="565" as="targetPoint" />
          </mxGeometry>
        </mxCell>
        <mxCell id="JhfPwucGBp-IxvxOEwGX-161" value="&lt;u&gt;MaGY &lt;/u&gt;" style="ellipse;whiteSpace=wrap;html=1;fontStyle=1" vertex="1" parent="1">
          <mxGeometry x="1724" y="800" width="110" height="40" as="geometry" />
        </mxCell>
        <mxCell id="JhfPwucGBp-IxvxOEwGX-162" value="" style="endArrow=none;html=1;rounded=0;exitX=0.25;exitY=0;exitDx=0;exitDy=0;entryX=0.5;entryY=1;entryDx=0;entryDy=0;fontStyle=1" edge="1" parent="1" source="JhfPwucGBp-IxvxOEwGX-142" target="JhfPwucGBp-IxvxOEwGX-161">
          <mxGeometry width="50" height="50" relative="1" as="geometry">
            <mxPoint x="1644" y="860" as="sourcePoint" />
            <mxPoint x="1458" y="525" as="targetPoint" />
          </mxGeometry>
        </mxCell>
        <mxCell id="JhfPwucGBp-IxvxOEwGX-163" value="PHANQUYEN" style="rounded=0;whiteSpace=wrap;html=1;fontStyle=1" vertex="1" parent="1">
          <mxGeometry x="2982.5" y="1090" width="120" height="60" as="geometry" />
        </mxCell>
        <mxCell id="JhfPwucGBp-IxvxOEwGX-164" value="&lt;u&gt;MaPQ&amp;nbsp;&lt;/u&gt;" style="ellipse;whiteSpace=wrap;html=1;fontStyle=1" vertex="1" parent="1">
          <mxGeometry x="2833.5" y="1070" width="110" height="40" as="geometry" />
        </mxCell>
        <mxCell id="JhfPwucGBp-IxvxOEwGX-165" value="" style="endArrow=none;html=1;rounded=0;exitX=0;exitY=0.25;exitDx=0;exitDy=0;entryX=1;entryY=0.5;entryDx=0;entryDy=0;fontStyle=1" edge="1" parent="1" source="JhfPwucGBp-IxvxOEwGX-163" target="JhfPwucGBp-IxvxOEwGX-164">
          <mxGeometry width="50" height="50" relative="1" as="geometry">
            <mxPoint x="2822.5" y="1100" as="sourcePoint" />
            <mxPoint x="2852.5" y="935" as="targetPoint" />
          </mxGeometry>
        </mxCell>
        <mxCell id="JhfPwucGBp-IxvxOEwGX-166" value="Sua" style="ellipse;whiteSpace=wrap;html=1;fontStyle=1" vertex="1" parent="1">
          <mxGeometry x="3162.5" y="1080" width="110" height="40" as="geometry" />
        </mxCell>
        <mxCell id="JhfPwucGBp-IxvxOEwGX-167" value="" style="endArrow=none;html=1;rounded=0;exitX=1;exitY=0.25;exitDx=0;exitDy=0;entryX=0;entryY=0.5;entryDx=0;entryDy=0;fontStyle=1" edge="1" parent="1" source="JhfPwucGBp-IxvxOEwGX-163" target="JhfPwucGBp-IxvxOEwGX-166">
          <mxGeometry width="50" height="50" relative="1" as="geometry">
            <mxPoint x="3012.5" y="985" as="sourcePoint" />
            <mxPoint x="2882.5" y="835" as="targetPoint" />
          </mxGeometry>
        </mxCell>
        <mxCell id="JhfPwucGBp-IxvxOEwGX-168" value="MaTrang" style="ellipse;whiteSpace=wrap;html=1;fontStyle=1" vertex="1" parent="1">
          <mxGeometry x="3012.5" y="990" width="110" height="40" as="geometry" />
        </mxCell>
        <mxCell id="JhfPwucGBp-IxvxOEwGX-169" value="" style="endArrow=none;html=1;rounded=0;exitX=0.75;exitY=0;exitDx=0;exitDy=0;entryX=0.5;entryY=1;entryDx=0;entryDy=0;fontStyle=1" edge="1" parent="1" source="JhfPwucGBp-IxvxOEwGX-163" target="JhfPwucGBp-IxvxOEwGX-168">
          <mxGeometry width="50" height="50" relative="1" as="geometry">
            <mxPoint x="3062.5" y="1130" as="sourcePoint" />
            <mxPoint x="3277.5" y="1145" as="targetPoint" />
          </mxGeometry>
        </mxCell>
        <mxCell id="JhfPwucGBp-IxvxOEwGX-170" value="Them" style="ellipse;whiteSpace=wrap;html=1;fontStyle=1" vertex="1" parent="1">
          <mxGeometry x="3166.5" y="1000" width="110" height="40" as="geometry" />
        </mxCell>
        <mxCell id="JhfPwucGBp-IxvxOEwGX-171" value="" style="endArrow=none;html=1;rounded=0;exitX=0.75;exitY=0;exitDx=0;exitDy=0;entryX=0;entryY=0.5;entryDx=0;entryDy=0;fontStyle=1" edge="1" parent="1" source="JhfPwucGBp-IxvxOEwGX-163" target="JhfPwucGBp-IxvxOEwGX-170">
          <mxGeometry width="50" height="50" relative="1" as="geometry">
            <mxPoint x="3106.5" y="1025" as="sourcePoint" />
            <mxPoint x="2886.5" y="755" as="targetPoint" />
          </mxGeometry>
        </mxCell>
        <mxCell id="JhfPwucGBp-IxvxOEwGX-172" value="MaPB" style="ellipse;whiteSpace=wrap;html=1;fontStyle=1" vertex="1" parent="1">
          <mxGeometry x="2882.5" y="990" width="110" height="40" as="geometry" />
        </mxCell>
        <mxCell id="JhfPwucGBp-IxvxOEwGX-173" value="" style="endArrow=none;html=1;rounded=0;exitX=0.25;exitY=0;exitDx=0;exitDy=0;entryX=0.5;entryY=1;entryDx=0;entryDy=0;fontStyle=1" edge="1" parent="1" source="JhfPwucGBp-IxvxOEwGX-163" target="JhfPwucGBp-IxvxOEwGX-172">
          <mxGeometry width="50" height="50" relative="1" as="geometry">
            <mxPoint x="2802.5" y="1050" as="sourcePoint" />
            <mxPoint x="2616.5" y="715" as="targetPoint" />
          </mxGeometry>
        </mxCell>
        <mxCell id="JhfPwucGBp-IxvxOEwGX-174" value="Xoa" style="ellipse;whiteSpace=wrap;html=1;fontStyle=1" vertex="1" parent="1">
          <mxGeometry x="3153.5" y="1150" width="110" height="40" as="geometry" />
        </mxCell>
        <mxCell id="JhfPwucGBp-IxvxOEwGX-175" value="" style="endArrow=none;html=1;rounded=0;exitX=1;exitY=0.75;exitDx=0;exitDy=0;entryX=0;entryY=0.5;entryDx=0;entryDy=0;fontStyle=1" edge="1" parent="1" source="JhfPwucGBp-IxvxOEwGX-163" target="JhfPwucGBp-IxvxOEwGX-174">
          <mxGeometry width="50" height="50" relative="1" as="geometry">
            <mxPoint x="3093.5" y="1175" as="sourcePoint" />
            <mxPoint x="2873.5" y="905" as="targetPoint" />
          </mxGeometry>
        </mxCell>
        <mxCell id="JhfPwucGBp-IxvxOEwGX-176" value="Xem" style="ellipse;whiteSpace=wrap;html=1;fontStyle=1" vertex="1" parent="1">
          <mxGeometry x="2833.5" y="1140" width="110" height="40" as="geometry" />
        </mxCell>
        <mxCell id="JhfPwucGBp-IxvxOEwGX-177" value="" style="endArrow=none;html=1;rounded=0;exitX=0;exitY=0.5;exitDx=0;exitDy=0;entryX=1;entryY=0.5;entryDx=0;entryDy=0;fontStyle=1" edge="1" parent="1" source="JhfPwucGBp-IxvxOEwGX-163" target="JhfPwucGBp-IxvxOEwGX-176">
          <mxGeometry width="50" height="50" relative="1" as="geometry">
            <mxPoint x="2793.5" y="1150" as="sourcePoint" />
            <mxPoint x="2564.5" y="920" as="targetPoint" />
          </mxGeometry>
        </mxCell>
        <mxCell id="JhfPwucGBp-IxvxOEwGX-178" value="LIENHE" style="rounded=0;whiteSpace=wrap;html=1;fontStyle=1" vertex="1" parent="1">
          <mxGeometry x="2419.5" y="1090" width="120" height="60" as="geometry" />
        </mxCell>
        <mxCell id="JhfPwucGBp-IxvxOEwGX-179" value="&lt;u&gt;UserName&lt;/u&gt;" style="ellipse;whiteSpace=wrap;html=1;fontStyle=1" vertex="1" parent="1">
          <mxGeometry x="2280" y="1075" width="110" height="40" as="geometry" />
        </mxCell>
        <mxCell id="JhfPwucGBp-IxvxOEwGX-180" value="" style="endArrow=none;html=1;rounded=0;exitX=0;exitY=0.25;exitDx=0;exitDy=0;entryX=1;entryY=0.5;entryDx=0;entryDy=0;fontStyle=1" edge="1" parent="1" source="JhfPwucGBp-IxvxOEwGX-178" target="JhfPwucGBp-IxvxOEwGX-179">
          <mxGeometry width="50" height="50" relative="1" as="geometry">
            <mxPoint x="2259.5" y="1100" as="sourcePoint" />
            <mxPoint x="2289.5" y="935" as="targetPoint" />
          </mxGeometry>
        </mxCell>
        <mxCell id="JhfPwucGBp-IxvxOEwGX-181" value="Message" style="ellipse;whiteSpace=wrap;html=1;fontStyle=1" vertex="1" parent="1">
          <mxGeometry x="2520" y="1005" width="110" height="40" as="geometry" />
        </mxCell>
        <mxCell id="JhfPwucGBp-IxvxOEwGX-182" value="" style="endArrow=none;html=1;rounded=0;exitX=0.75;exitY=0;exitDx=0;exitDy=0;entryX=0.5;entryY=1;entryDx=0;entryDy=0;fontStyle=1" edge="1" parent="1" source="JhfPwucGBp-IxvxOEwGX-178" target="JhfPwucGBp-IxvxOEwGX-181">
          <mxGeometry width="50" height="50" relative="1" as="geometry">
            <mxPoint x="2499.5" y="1130" as="sourcePoint" />
            <mxPoint x="2714.5" y="1145" as="targetPoint" />
          </mxGeometry>
        </mxCell>
        <mxCell id="JhfPwucGBp-IxvxOEwGX-183" value="Image" style="ellipse;whiteSpace=wrap;html=1;fontStyle=1" vertex="1" parent="1">
          <mxGeometry x="2590" y="1085" width="110" height="40" as="geometry" />
        </mxCell>
        <mxCell id="JhfPwucGBp-IxvxOEwGX-184" value="" style="endArrow=none;html=1;rounded=0;exitX=1;exitY=0.5;exitDx=0;exitDy=0;entryX=0;entryY=0.5;entryDx=0;entryDy=0;fontStyle=1" edge="1" parent="1" source="JhfPwucGBp-IxvxOEwGX-178" target="JhfPwucGBp-IxvxOEwGX-183">
          <mxGeometry width="50" height="50" relative="1" as="geometry">
            <mxPoint x="2543.5" y="1025" as="sourcePoint" />
            <mxPoint x="2323.5" y="755" as="targetPoint" />
          </mxGeometry>
        </mxCell>
        <mxCell id="JhfPwucGBp-IxvxOEwGX-185" value="Email" style="ellipse;whiteSpace=wrap;html=1;fontStyle=1" vertex="1" parent="1">
          <mxGeometry x="2370" y="1005" width="110" height="40" as="geometry" />
        </mxCell>
        <mxCell id="JhfPwucGBp-IxvxOEwGX-186" value="" style="endArrow=none;html=1;rounded=0;exitX=0.25;exitY=0;exitDx=0;exitDy=0;entryX=0.5;entryY=1;entryDx=0;entryDy=0;fontStyle=1" edge="1" parent="1" source="JhfPwucGBp-IxvxOEwGX-178" target="JhfPwucGBp-IxvxOEwGX-185">
          <mxGeometry width="50" height="50" relative="1" as="geometry">
            <mxPoint x="2239.5" y="1050" as="sourcePoint" />
            <mxPoint x="2053.5" y="715" as="targetPoint" />
          </mxGeometry>
        </mxCell>
        <mxCell id="JhfPwucGBp-IxvxOEwGX-187" value="HOTEN" style="ellipse;whiteSpace=wrap;html=1;fontStyle=1" vertex="1" parent="1">
          <mxGeometry x="2270" y="1520" width="110" height="40" as="geometry" />
        </mxCell>
        <mxCell id="JhfPwucGBp-IxvxOEwGX-188" value="" style="endArrow=none;html=1;rounded=0;exitX=1;exitY=0.5;exitDx=0;exitDy=0;entryX=0;entryY=0.5;entryDx=0;entryDy=0;fontStyle=1" edge="1" parent="1" source="JhfPwucGBp-IxvxOEwGX-220" target="JhfPwucGBp-IxvxOEwGX-187">
          <mxGeometry width="50" height="50" relative="1" as="geometry">
            <mxPoint x="1909" y="1405" as="sourcePoint" />
            <mxPoint x="1779" y="1235" as="targetPoint" />
          </mxGeometry>
        </mxCell>
        <mxCell id="JhfPwucGBp-IxvxOEwGX-189" value="EMAIL" style="ellipse;whiteSpace=wrap;html=1;fontStyle=1" vertex="1" parent="1">
          <mxGeometry x="2280" y="1370" width="110" height="40" as="geometry" />
        </mxCell>
        <mxCell id="JhfPwucGBp-IxvxOEwGX-190" value="" style="endArrow=none;html=1;rounded=0;entryX=0.5;entryY=1;entryDx=0;entryDy=0;fontStyle=1" edge="1" parent="1" target="JhfPwucGBp-IxvxOEwGX-189">
          <mxGeometry width="50" height="50" relative="1" as="geometry">
            <mxPoint x="2170" y="1440" as="sourcePoint" />
            <mxPoint x="2204" y="1445" as="targetPoint" />
          </mxGeometry>
        </mxCell>
        <mxCell id="JhfPwucGBp-IxvxOEwGX-191" value="MATKHAU" style="ellipse;whiteSpace=wrap;html=1;fontStyle=1" vertex="1" parent="1">
          <mxGeometry x="2270" y="1440" width="110" height="40" as="geometry" />
        </mxCell>
        <mxCell id="JhfPwucGBp-IxvxOEwGX-192" value="" style="endArrow=none;html=1;rounded=0;exitX=1;exitY=0.5;exitDx=0;exitDy=0;entryX=0;entryY=0.5;entryDx=0;entryDy=0;fontStyle=1" edge="1" parent="1" source="JhfPwucGBp-IxvxOEwGX-220" target="JhfPwucGBp-IxvxOEwGX-191">
          <mxGeometry width="50" height="50" relative="1" as="geometry">
            <mxPoint x="2029" y="1405" as="sourcePoint" />
            <mxPoint x="1813" y="1055" as="targetPoint" />
          </mxGeometry>
        </mxCell>
        <mxCell id="JhfPwucGBp-IxvxOEwGX-193" value="&lt;u&gt;MANV&lt;/u&gt;" style="ellipse;whiteSpace=wrap;html=1;fontStyle=1" vertex="1" parent="1">
          <mxGeometry x="2260" y="1300" width="110" height="40" as="geometry" />
        </mxCell>
        <mxCell id="JhfPwucGBp-IxvxOEwGX-194" value="" style="endArrow=none;html=1;rounded=0;exitX=1;exitY=0.5;exitDx=0;exitDy=0;entryX=0.5;entryY=1;entryDx=0;entryDy=0;fontStyle=1" edge="1" parent="1" source="JhfPwucGBp-IxvxOEwGX-220" target="JhfPwucGBp-IxvxOEwGX-193">
          <mxGeometry width="50" height="50" relative="1" as="geometry">
            <mxPoint x="1939" y="1390" as="sourcePoint" />
            <mxPoint x="1543" y="1015" as="targetPoint" />
          </mxGeometry>
        </mxCell>
        <mxCell id="JhfPwucGBp-IxvxOEwGX-195" value="&lt;u&gt;MaBB&lt;/u&gt;" style="ellipse;whiteSpace=wrap;html=1;fontStyle=1" vertex="1" parent="1">
          <mxGeometry x="2774" y="2220" width="110" height="40" as="geometry" />
        </mxCell>
        <mxCell id="JhfPwucGBp-IxvxOEwGX-196" value="" style="endArrow=none;html=1;rounded=0;exitX=0;exitY=0;exitDx=0;exitDy=0;entryX=1;entryY=0.5;entryDx=0;entryDy=0;fontStyle=1" edge="1" parent="1" source="JhfPwucGBp-IxvxOEwGX-227" target="JhfPwucGBp-IxvxOEwGX-195">
          <mxGeometry width="50" height="50" relative="1" as="geometry">
            <mxPoint x="2923" y="2255" as="sourcePoint" />
            <mxPoint x="2793" y="2085" as="targetPoint" />
          </mxGeometry>
        </mxCell>
        <mxCell id="JhfPwucGBp-IxvxOEwGX-197" value="&lt;u&gt;MaKH&lt;/u&gt;" style="ellipse;whiteSpace=wrap;html=1;fontStyle=1" vertex="1" parent="1">
          <mxGeometry x="2753" y="2300" width="110" height="40" as="geometry" />
        </mxCell>
        <mxCell id="JhfPwucGBp-IxvxOEwGX-198" value="" style="endArrow=none;html=1;rounded=0;exitX=0;exitY=1;exitDx=0;exitDy=0;entryX=1;entryY=0.5;entryDx=0;entryDy=0;fontStyle=1" edge="1" parent="1" source="JhfPwucGBp-IxvxOEwGX-227" target="JhfPwucGBp-IxvxOEwGX-197">
          <mxGeometry width="50" height="50" relative="1" as="geometry">
            <mxPoint x="2923" y="2270" as="sourcePoint" />
            <mxPoint x="2793" y="2165" as="targetPoint" />
          </mxGeometry>
        </mxCell>
        <mxCell id="JhfPwucGBp-IxvxOEwGX-199" value="&lt;u&gt;MaHH&lt;/u&gt;" style="ellipse;whiteSpace=wrap;html=1;fontStyle=1" vertex="1" parent="1">
          <mxGeometry x="2774" y="2380" width="110" height="40" as="geometry" />
        </mxCell>
        <mxCell id="JhfPwucGBp-IxvxOEwGX-200" value="" style="endArrow=none;html=1;rounded=0;exitX=0;exitY=1;exitDx=0;exitDy=0;entryX=1;entryY=0.5;entryDx=0;entryDy=0;fontStyle=1;" edge="1" parent="1" source="JhfPwucGBp-IxvxOEwGX-227" target="JhfPwucGBp-IxvxOEwGX-199">
          <mxGeometry width="50" height="50" relative="1" as="geometry">
            <mxPoint x="2931.04" y="2300.18" as="sourcePoint" />
            <mxPoint x="2783" y="2240" as="targetPoint" />
          </mxGeometry>
        </mxCell>
        <mxCell id="JhfPwucGBp-IxvxOEwGX-201" value="HoTen" style="ellipse;whiteSpace=wrap;html=1;fontStyle=1" vertex="1" parent="1">
          <mxGeometry x="2880" y="2400" width="110" height="40" as="geometry" />
        </mxCell>
        <mxCell id="JhfPwucGBp-IxvxOEwGX-202" value="" style="endArrow=none;html=1;rounded=0;exitX=0;exitY=1;exitDx=0;exitDy=0;entryX=0.5;entryY=0;entryDx=0;entryDy=0;fontStyle=1" edge="1" parent="1" source="JhfPwucGBp-IxvxOEwGX-227" target="JhfPwucGBp-IxvxOEwGX-201">
          <mxGeometry width="50" height="50" relative="1" as="geometry">
            <mxPoint x="2953" y="2300" as="sourcePoint" />
            <mxPoint x="2938" y="2240" as="targetPoint" />
          </mxGeometry>
        </mxCell>
        <mxCell id="JhfPwucGBp-IxvxOEwGX-203" value="NgayGui" style="ellipse;whiteSpace=wrap;html=1;fontStyle=1" vertex="1" parent="1">
          <mxGeometry x="3063" y="2360" width="110" height="40" as="geometry" />
        </mxCell>
        <mxCell id="JhfPwucGBp-IxvxOEwGX-204" value="" style="endArrow=none;html=1;rounded=0;exitX=1;exitY=1;exitDx=0;exitDy=0;entryX=0.5;entryY=0;entryDx=0;entryDy=0;fontStyle=1" edge="1" parent="1" source="JhfPwucGBp-IxvxOEwGX-227" target="JhfPwucGBp-IxvxOEwGX-203">
          <mxGeometry width="50" height="50" relative="1" as="geometry">
            <mxPoint x="3013" y="2300" as="sourcePoint" />
            <mxPoint x="3068" y="2255" as="targetPoint" />
          </mxGeometry>
        </mxCell>
        <mxCell id="JhfPwucGBp-IxvxOEwGX-205" value="&lt;u&gt;GhiChu&lt;/u&gt;" style="ellipse;whiteSpace=wrap;html=1;fontStyle=1" vertex="1" parent="1">
          <mxGeometry x="3110" y="2300" width="110" height="40" as="geometry" />
        </mxCell>
        <mxCell id="JhfPwucGBp-IxvxOEwGX-206" value="" style="endArrow=none;html=1;rounded=0;exitX=1;exitY=1;exitDx=0;exitDy=0;entryX=0.5;entryY=0;entryDx=0;entryDy=0;fontStyle=1" edge="1" parent="1" source="JhfPwucGBp-IxvxOEwGX-227" target="JhfPwucGBp-IxvxOEwGX-205">
          <mxGeometry width="50" height="50" relative="1" as="geometry">
            <mxPoint x="3043" y="2270" as="sourcePoint" />
            <mxPoint x="3218" y="2295" as="targetPoint" />
          </mxGeometry>
        </mxCell>
        <mxCell id="JhfPwucGBp-IxvxOEwGX-207" value="Email" style="ellipse;whiteSpace=wrap;html=1;fontStyle=1" vertex="1" parent="1">
          <mxGeometry x="3000" y="2400" width="110" height="40" as="geometry" />
        </mxCell>
        <mxCell id="JhfPwucGBp-IxvxOEwGX-208" value="" style="endArrow=none;html=1;rounded=0;entryX=0.5;entryY=0;entryDx=0;entryDy=0;fontStyle=1;exitX=1;exitY=1;exitDx=0;exitDy=0;" edge="1" parent="1" source="JhfPwucGBp-IxvxOEwGX-227" target="JhfPwucGBp-IxvxOEwGX-207">
          <mxGeometry width="50" height="50" relative="1" as="geometry">
            <mxPoint x="2983" y="2300" as="sourcePoint" />
            <mxPoint x="3008" y="2305" as="targetPoint" />
          </mxGeometry>
        </mxCell>
        <mxCell id="JhfPwucGBp-IxvxOEwGX-209" value="PHANCONG" style="rounded=0;whiteSpace=wrap;html=1;fontStyle=1" vertex="1" parent="1">
          <mxGeometry x="1717" y="1400" width="123" height="80" as="geometry" />
        </mxCell>
        <mxCell id="JhfPwucGBp-IxvxOEwGX-210" value="&lt;u&gt;MaNV &lt;/u&gt;" style="ellipse;whiteSpace=wrap;html=1;fontStyle=1" vertex="1" parent="1">
          <mxGeometry x="1699.5" y="1550" width="110" height="40" as="geometry" />
        </mxCell>
        <mxCell id="JhfPwucGBp-IxvxOEwGX-211" value="" style="endArrow=none;html=1;rounded=0;exitX=0.5;exitY=1;exitDx=0;exitDy=0;entryX=1;entryY=0.5;entryDx=0;entryDy=0;fontStyle=1" edge="1" parent="1" source="JhfPwucGBp-IxvxOEwGX-209" target="JhfPwucGBp-IxvxOEwGX-210">
          <mxGeometry width="50" height="50" relative="1" as="geometry">
            <mxPoint x="1299" y="1430" as="sourcePoint" />
            <mxPoint x="1329" y="1265" as="targetPoint" />
          </mxGeometry>
        </mxCell>
        <mxCell id="JhfPwucGBp-IxvxOEwGX-212" value="NgayPC" style="ellipse;whiteSpace=wrap;html=1;fontStyle=1" vertex="1" parent="1">
          <mxGeometry x="1890" y="1540" width="110" height="40" as="geometry" />
        </mxCell>
        <mxCell id="JhfPwucGBp-IxvxOEwGX-213" value="" style="endArrow=none;html=1;rounded=0;exitX=0.75;exitY=1;exitDx=0;exitDy=0;entryX=0;entryY=0.5;entryDx=0;entryDy=0;fontStyle=1" edge="1" parent="1" source="JhfPwucGBp-IxvxOEwGX-209" target="JhfPwucGBp-IxvxOEwGX-212">
          <mxGeometry width="50" height="50" relative="1" as="geometry">
            <mxPoint x="1489" y="1315" as="sourcePoint" />
            <mxPoint x="1359" y="1165" as="targetPoint" />
          </mxGeometry>
        </mxCell>
        <mxCell id="JhfPwucGBp-IxvxOEwGX-214" value="HieuLuc" style="ellipse;whiteSpace=wrap;html=1;fontStyle=1" vertex="1" parent="1">
          <mxGeometry x="1709.5" y="1300" width="110" height="40" as="geometry" />
        </mxCell>
        <mxCell id="JhfPwucGBp-IxvxOEwGX-215" value="" style="endArrow=none;html=1;rounded=0;exitX=0.75;exitY=0;exitDx=0;exitDy=0;entryX=0.5;entryY=1;entryDx=0;entryDy=0;fontStyle=1" edge="1" parent="1" source="JhfPwucGBp-IxvxOEwGX-209" target="JhfPwucGBp-IxvxOEwGX-214">
          <mxGeometry width="50" height="50" relative="1" as="geometry">
            <mxPoint x="1539" y="1460" as="sourcePoint" />
            <mxPoint x="1754" y="1475" as="targetPoint" />
          </mxGeometry>
        </mxCell>
        <mxCell id="JhfPwucGBp-IxvxOEwGX-216" value="MaPB" style="ellipse;whiteSpace=wrap;html=1;fontStyle=1" vertex="1" parent="1">
          <mxGeometry x="1840" y="1340" width="110" height="40" as="geometry" />
        </mxCell>
        <mxCell id="JhfPwucGBp-IxvxOEwGX-217" value="" style="endArrow=none;html=1;rounded=0;exitX=0.75;exitY=0;exitDx=0;exitDy=0;entryX=0;entryY=0.5;entryDx=0;entryDy=0;fontStyle=1" edge="1" parent="1" source="JhfPwucGBp-IxvxOEwGX-209" target="JhfPwucGBp-IxvxOEwGX-216">
          <mxGeometry width="50" height="50" relative="1" as="geometry">
            <mxPoint x="1583" y="1355" as="sourcePoint" />
            <mxPoint x="1363" y="1085" as="targetPoint" />
          </mxGeometry>
        </mxCell>
        <mxCell id="JhfPwucGBp-IxvxOEwGX-218" value="&lt;u&gt;MaPC&amp;nbsp;&lt;/u&gt;" style="ellipse;whiteSpace=wrap;html=1;fontStyle=1" vertex="1" parent="1">
          <mxGeometry x="1607" y="1340" width="110" height="40" as="geometry" />
        </mxCell>
        <mxCell id="JhfPwucGBp-IxvxOEwGX-219" value="" style="endArrow=none;html=1;rounded=0;exitX=0.25;exitY=0;exitDx=0;exitDy=0;entryX=0.5;entryY=1;entryDx=0;entryDy=0;fontStyle=1" edge="1" parent="1" source="JhfPwucGBp-IxvxOEwGX-209" target="JhfPwucGBp-IxvxOEwGX-218">
          <mxGeometry width="50" height="50" relative="1" as="geometry">
            <mxPoint x="1279" y="1380" as="sourcePoint" />
            <mxPoint x="1093" y="1045" as="targetPoint" />
          </mxGeometry>
        </mxCell>
        <mxCell id="JhfPwucGBp-IxvxOEwGX-220" value="&lt;b&gt;NHANVIEN&lt;/b&gt;" style="rhombus;whiteSpace=wrap;html=1;" vertex="1" parent="1">
          <mxGeometry x="2020" y="1400" width="150" height="80" as="geometry" />
        </mxCell>
        <mxCell id="JhfPwucGBp-IxvxOEwGX-221" value="" style="endArrow=none;html=1;rounded=0;entryX=0;entryY=0.5;entryDx=0;entryDy=0;exitX=1;exitY=0.5;exitDx=0;exitDy=0;" edge="1" parent="1" source="JhfPwucGBp-IxvxOEwGX-209" target="JhfPwucGBp-IxvxOEwGX-220">
          <mxGeometry width="50" height="50" relative="1" as="geometry">
            <mxPoint x="1580" y="1460" as="sourcePoint" />
            <mxPoint x="1630" y="1410" as="targetPoint" />
          </mxGeometry>
        </mxCell>
        <mxCell id="JhfPwucGBp-IxvxOEwGX-222" value="&lt;b&gt;KHACHHANG&lt;/b&gt;" style="rhombus;whiteSpace=wrap;html=1;" vertex="1" parent="1">
          <mxGeometry x="2420" y="1834" width="130" height="80" as="geometry" />
        </mxCell>
        <mxCell id="JhfPwucGBp-IxvxOEwGX-223" style="edgeStyle=orthogonalEdgeStyle;rounded=0;orthogonalLoop=1;jettySize=auto;html=1;entryX=0;entryY=0.5;entryDx=0;entryDy=0;endArrow=none;endFill=0;" edge="1" parent="1" source="JhfPwucGBp-IxvxOEwGX-224" target="JhfPwucGBp-IxvxOEwGX-92">
          <mxGeometry relative="1" as="geometry" />
        </mxCell>
        <mxCell id="JhfPwucGBp-IxvxOEwGX-224" value="&lt;b&gt;TRANGTHAI&lt;/b&gt;" style="rhombus;whiteSpace=wrap;html=1;" vertex="1" parent="1">
          <mxGeometry x="1220" y="1875" width="143" height="80" as="geometry" />
        </mxCell>
        <mxCell id="JhfPwucGBp-IxvxOEwGX-225" style="edgeStyle=orthogonalEdgeStyle;rounded=0;orthogonalLoop=1;jettySize=auto;html=1;entryX=0.5;entryY=1;entryDx=0;entryDy=0;endArrow=none;endFill=0;" edge="1" parent="1" source="JhfPwucGBp-IxvxOEwGX-227" target="JhfPwucGBp-IxvxOEwGX-222">
          <mxGeometry relative="1" as="geometry" />
        </mxCell>
        <mxCell id="JhfPwucGBp-IxvxOEwGX-226" style="edgeStyle=orthogonalEdgeStyle;rounded=0;orthogonalLoop=1;jettySize=auto;html=1;entryX=0.5;entryY=1;entryDx=0;entryDy=0;endArrow=none;endFill=0;" edge="1" parent="1" source="JhfPwucGBp-IxvxOEwGX-227" target="JhfPwucGBp-IxvxOEwGX-3">
          <mxGeometry relative="1" as="geometry" />
        </mxCell>
        <mxCell id="JhfPwucGBp-IxvxOEwGX-227" value="BANBE" style="rhombus;whiteSpace=wrap;html=1;" vertex="1" parent="1">
          <mxGeometry x="2930" y="2170" width="130" height="80" as="geometry" />
        </mxCell>
        <mxCell id="JhfPwucGBp-IxvxOEwGX-228" style="edgeStyle=orthogonalEdgeStyle;rounded=0;orthogonalLoop=1;jettySize=auto;html=1;endArrow=none;endFill=0;" edge="1" parent="1" source="JhfPwucGBp-IxvxOEwGX-119">
          <mxGeometry relative="1" as="geometry">
            <mxPoint x="3330" y="1920" as="targetPoint" />
          </mxGeometry>
        </mxCell>
      </root>
    </mxGraphModel>
  </diagram>
</mxfile>
